<?xml version="1.0" encoding="utf-8"?>
<!-- Generator: Adobe Illustrator 16.0.0, SVG Export Plug-In . SVG Version: 6.00 Build 0)  -->
<!DOCTYPE svg PUBLIC "-//W3C//DTD SVG 1.1//EN" "http://www.w3.org/Graphics/SVG/1.1/DTD/svg11.dtd">
<svg version="1.1" id="Layer_1" xmlns="http://www.w3.org/2000/svg" xmlns:xlink="http://www.w3.org/1999/xlink" x="0px" y="0px"
	 viewBox="0 0 100 100" enable-background="new 0 0 100 100" xml:space="preserve">
<path fill-rule="evenodd" clip-rule="evenodd" d="M84.75,67.3c0.1,0,0.167,0,0.2,0
	s0.1,0,0.2,0c0.033,0,0.116,0,0.25,0c0.033,0,0.083,0,0.149,0s0.134,0,0.2,0c0.033,0,0.1,0,0.2,0c0.033,0,0.1,0,0.2,0
	c0.033,0,0.083,0,0.149,0s0.134,0,0.2,0c0.033,0,0.066,0.017,0.1,0.05c0.067,0.034,0.101,0.101,0.101,0.2c0.033,0,0.083,0,0.149,0
	c0.067,0,0.15,0,0.25,0c0,0.033,0,0.101,0,0.2c0.067,0,0.134,0,0.2,0c0.033,0,0.101,0,0.2,0c0,0.033,0,0.066,0,0.1
	c0.033,0,0.066,0,0.1,0c0.101,0,0.184,0,0.25,0c0,0.101,0,0.184,0,0.25c0.034,0,0.101,0,0.2,0c0,0.034,0,0.101,0,0.2
	c0.033,0,0.101,0,0.2,0c0,0.033,0,0.101,0,0.2c0.033,0,0.066,0,0.1,0c0,0.033,0,0.066,0,0.1c0,0.101,0,0.167,0,0.2
	c0.101,0,0.167,0,0.2,0c0,0.066,0,0.15,0,0.25c0.101,0,0.167,0,0.2,0c0.033,0.066,0.05,0.15,0.05,0.25c0,0.033,0,0.066,0,0.101
	c0,0.1,0,0.166,0,0.199c0.066,0,0.15,0,0.25,0c0,0.067,0,0.134,0,0.2s0,0.117,0,0.15c0,0.1,0,0.166,0,0.2c0,0.1,0,0.166,0,0.199
	c0.033,0,0.066,0,0.101,0c0,0.067,0,0.134,0,0.2s0,0.117,0,0.15c0,0.133,0,0.217,0,0.25c0,0.066,0,0.133,0,0.2
	c-0.034,0-0.067,0-0.101,0c0,0.066,0,0.133,0,0.199c0,0.067,0,0.117,0,0.15c0,0.1,0,0.167,0,0.2s0,0.1,0,0.2
	c0,0.066,0,0.133,0,0.199c0,0.067,0,0.117,0,0.15c0,0.134,0,0.217,0,0.25s0,0.1,0,0.2c0,0.033,0,0.083,0,0.149
	c0,0.101,0,0.167,0,0.2c0,0.101,0,0.167,0,0.2s0,0.1,0,0.2c0,0.033,0,0.083,0,0.149c0,0.067,0,0.134,0,0.2c-0.1,0-0.184,0-0.25,0
	c0,0.101,0,0.184,0,0.25c0,0.033,0,0.101,0,0.2c0,0.033,0,0.083,0,0.15c0,0.066,0,0.133,0,0.199c0,0.034,0,0.101,0,0.2
	c0,0.033,0,0.101,0,0.2c0,0.033,0,0.083,0,0.15c0,0.066,0,0.133,0,0.199c0,0.034,0,0.101,0,0.2c0,0.033,0,0.084,0,0.15
	c0,0.1,0,0.184,0,0.25s0,0.133,0,0.2c0,0.033,0,0.1,0,0.199c-0.066,0-0.149,0-0.25,0c0,0.034,0,0.067,0,0.101c0,0.1,0,0.166,0,0.2
	c0,0.1,0,0.183,0,0.25c0,0.033,0,0.1,0,0.199c0,0.034,0,0.067,0,0.101c0,0.133,0,0.217,0,0.25c0,0.066,0,0.133,0,0.2
	c0,0.066,0,0.149,0,0.25c0,0.033,0,0.066,0,0.1c0,0.1,0,0.167,0,0.2c0,0.066,0,0.133,0,0.2c0,0.066,0,0.133,0,0.199
	c0,0.067,0,0.117,0,0.15c-0.033,0-0.1,0-0.2,0c0,0.134,0,0.217,0,0.25c0,0.066,0,0.134,0,0.2s0,0.116,0,0.149c0,0.101,0,0.167,0,0.2
	c0,0.101,0,0.167,0,0.2c0,0.066,0,0.134,0,0.2s0,0.116,0,0.149c0,0.101,0,0.167,0,0.2s0,0.084,0,0.15
	c-0.033,0.033-0.066,0.05-0.1,0.05c0,0.066,0,0.15,0,0.25c0,0.066,0,0.116,0,0.15c-0.1,0-0.167,0-0.2,0c0,0.1,0,0.166,0,0.199
	c0,0.034,0,0.101,0,0.2c-0.1,0-0.166,0-0.2,0c0,0.033,0,0.101,0,0.2c-0.066,0-0.149,0-0.25,0c0,0.033,0,0.083,0,0.15
	c0,0.1,0,0.166,0,0.199c-0.033,0-0.066,0-0.1,0c0,0.034,0,0.101,0,0.2c-0.1,0-0.167,0-0.2,0c-0.066,0-0.133,0-0.2,0
	c0,0.033,0,0.101,0,0.2c-0.1,0-0.183,0-0.25,0c0,0.066,0,0.134,0,0.2c-0.066,0-0.116,0-0.149,0c0,0.066-0.033,0.1-0.101,0.1
	c-0.033,0.066-0.066,0.101-0.1,0.101c-0.066,0-0.134,0-0.2,0c0,0.033,0,0.1,0,0.199c-0.066,0-0.116,0-0.149,0
	c0,0.034-0.017,0.084-0.051,0.15c-0.066,0-0.116,0-0.149,0c-0.101,0-0.167,0-0.2,0c0,0.066,0,0.134,0,0.2c-0.066,0-0.134,0-0.2,0
	c0,0.033,0,0.066,0,0.1C85.483,83.366,85.434,83.4,85.4,83.4c-0.134,0-0.217,0-0.25,0c0,0.033,0,0.1,0,0.199c-0.101,0-0.167,0-0.2,0
	c0,0.034-0.017,0.084-0.05,0.15h-0.15c-0.066,0-0.116,0-0.15,0c0,0.1,0,0.184,0,0.25c-0.1,0-0.166,0-0.199,0c-0.034,0-0.101,0-0.2,0
	c0,0.033,0,0.1,0,0.2c-0.033,0-0.101,0-0.2,0c-0.033,0-0.083,0-0.15,0c0,0.033,0,0.1,0,0.2c0,0.033-0.017,0.066-0.05,0.1
	c-0.1,0-0.166,0-0.2,0c-0.033,0-0.1,0-0.199,0c0,0.1,0,0.184,0,0.25c-0.034,0-0.101,0-0.2,0c0,0.033,0,0.1,0,0.2
	c-0.033,0-0.084,0-0.15,0c0,0.033-0.017,0.066-0.05,0.1c-0.033,0-0.083,0-0.15,0c-0.033,0-0.1,0-0.199,0c0,0.101,0,0.167,0,0.2
	c-0.034,0-0.084,0-0.15,0c0,0.1-0.017,0.15-0.05,0.15c-0.033,0.066-0.084,0.1-0.15,0.1s-0.133,0-0.2,0c0,0.066,0,0.15,0,0.25
	c-0.066,0-0.149,0-0.25,0c0,0.033,0,0.066,0,0.1c-0.033,0-0.083,0-0.149,0s-0.134,0-0.2,0c0,0.101,0,0.167,0,0.2
	c-0.033,0-0.1,0-0.2,0c-0.033,0-0.1,0-0.2,0c0,0.101,0,0.167,0,0.2c-0.033,0-0.066,0-0.1,0c0,0.066-0.033,0.116-0.1,0.15
	c-0.034,0.033-0.084,0.05-0.15,0.05c-0.033,0-0.1,0-0.2,0c0,0.066,0,0.116,0,0.149c-0.033,0-0.116,0-0.25,0v0.15
	c-0.033,0.033-0.066,0.05-0.1,0.05c-0.101,0-0.167,0-0.2,0c0,0.066-0.033,0.117-0.1,0.15c0,0.033-0.051,0.05-0.15,0.05
	c0,0.1,0,0.167,0,0.2c-0.033,0.033-0.066,0.05-0.1,0.05c-0.101,0-0.167,0-0.2,0c0,0.066,0,0.116,0,0.15c-0.101,0-0.167,0-0.2,0
	c0,0.1,0,0.166,0,0.199c-0.066,0-0.134,0-0.2,0c0,0.067,0,0.134,0,0.2c-0.066,0-0.116,0-0.149,0c-0.134,0-0.217,0-0.25,0
	c0,0.066,0,0.117,0,0.15c-0.067,0-0.134,0-0.2,0c0,0.1,0,0.166,0,0.2c-0.066,0-0.134,0-0.2,0s-0.116,0-0.15,0c0,0.1,0,0.166,0,0.199
	c-0.1,0-0.166,0-0.199,0c0,0.034-0.034,0.084-0.101,0.15c0,0.033-0.033,0.05-0.1,0.05s-0.134,0-0.2,0c0,0.066,0,0.134,0,0.2
	c-0.066,0-0.116,0-0.15,0c0,0.1-0.017,0.15-0.05,0.15c-0.066,0.033-0.116,0.05-0.149,0.05c-0.067,0-0.15,0-0.25,0V89.1
	c-0.067,0.034-0.117,0.051-0.15,0.051c0,0.033-0.017,0.083-0.05,0.149c-0.066,0.033-0.117,0.05-0.15,0.05c-0.1,0-0.166,0-0.2,0
	c0,0.034-0.017,0.084-0.05,0.15H76.15c-0.034,0-0.084,0-0.15,0c0,0.1,0,0.167,0,0.2c-0.1,0-0.167,0-0.2,0
	c0,0.033-0.017,0.083-0.05,0.149c0,0.034-0.05,0.051-0.15,0.051c-0.033,0-0.116,0-0.25,0c0,0.033,0,0.1,0,0.199
	c-0.033,0-0.083,0-0.149,0c0,0.034-0.017,0.084-0.05,0.15c-0.034,0-0.084,0-0.15,0c-0.033,0-0.1,0-0.2,0c0,0.1,0,0.184,0,0.25
	c-0.033,0-0.1,0-0.2,0c0,0.033,0,0.1,0,0.2c-0.033,0-0.083,0-0.149,0c0,0.033-0.017,0.083-0.05,0.149
	c-0.034,0.034-0.084,0.051-0.15,0.051c-0.033,0-0.1,0-0.2,0c0,0.033,0,0.083,0,0.149c-0.033,0-0.066,0-0.1,0
	c0,0.066-0.033,0.101-0.101,0.101c-0.066,0.066-0.133,0.1-0.199,0.1c-0.067,0-0.134,0-0.2,0c0,0.033,0,0.1,0,0.2
	c-0.033,0-0.101,0-0.2,0c0,0.033,0,0.083,0,0.149c-0.033,0-0.066,0-0.1,0c-0.101,0-0.167,0-0.2,0c0,0.067,0,0.134,0,0.2
	c-0.101,0-0.184,0-0.25,0c0,0.066-0.017,0.101-0.05,0.101c0,0.1-0.051,0.149-0.15,0.149c-0.033,0-0.066,0-0.1,0
	c0,0.033,0,0.101,0,0.2c-0.101,0-0.167,0-0.2,0c0,0.033-0.05,0.066-0.15,0.1h-0.1c-0.066,0-0.15,0-0.25,0v0.15
	c-0.033,0.066-0.066,0.1-0.101,0.1c-0.1,0-0.166,0-0.199,0c0,0.034,0,0.101,0,0.2c-0.067,0-0.134,0-0.2,0c0,0.033,0,0.066,0,0.101
	c-0.066,0.066-0.117,0.1-0.15,0.1c-0.1,0-0.166,0-0.2,0c0,0.033,0,0.066,0,0.1c-0.1,0-0.166,0-0.199,0
	c0,0.101-0.034,0.15-0.101,0.15c0,0.033-0.05,0.05-0.149,0.05c-0.067,0-0.117,0-0.15,0c0,0.066,0,0.15,0,0.25c-0.1,0-0.167,0-0.2,0
	c0,0.066,0,0.15,0,0.25c-0.1,0-0.166,0-0.2,0c0,0.033,0,0.066,0,0.101c-0.066,0-0.133,0-0.199,0v0.149
	c-0.067,0.033-0.117,0.05-0.15,0.05c-0.1,0-0.167,0-0.2,0c0,0.067,0,0.134,0,0.2c-0.033,0-0.1,0-0.2,0c-0.033,0-0.1,0-0.199,0
	c0,0.066,0,0.117,0,0.15c-0.101,0-0.167,0-0.2,0c0,0.1-0.017,0.166-0.05,0.2c-0.067,0-0.117,0-0.15,0s-0.1,0-0.2,0
	c0,0.1,0,0.166,0,0.199c-0.033,0-0.083,0-0.149,0c0,0.067-0.017,0.117-0.051,0.15c-0.033,0.033-0.083,0.05-0.149,0.05
	c-0.101,0-0.167,0-0.2,0c0,0.066,0,0.117,0,0.15c-0.033,0-0.1,0-0.2,0v0.2c-0.033,0.033-0.083,0.05-0.149,0.05
	c-0.067,0-0.15,0-0.25,0c0,0.066,0,0.133,0,0.2c-0.067,0-0.134,0-0.2,0c0,0.066-0.017,0.116-0.05,0.149
	c0,0.033-0.051,0.05-0.15,0.05c-0.033,0-0.083,0-0.15,0c0,0.067,0,0.117,0,0.15c-0.066,0-0.133,0-0.199,0
	c0,0.1-0.017,0.15-0.051,0.15c0,0.033-0.05,0.05-0.149,0.05c-0.033,0-0.101,0-0.2,0c0,0.033,0,0.1,0,0.2c-0.033,0-0.083,0-0.15,0
	c-0.066,0-0.133,0-0.199,0c0,0.066,0,0.133,0,0.199c-0.034,0-0.117,0-0.25,0c0,0.067,0,0.117,0,0.15c-0.034,0-0.101,0-0.2,0
	c0,0.134,0,0.217,0,0.25c-0.033,0-0.066,0-0.101,0c0,0.033-0.033,0.083-0.1,0.15c-0.033,0.033-0.083,0.05-0.15,0.05
	c-0.033,0-0.1,0-0.199,0c0,0.033,0,0.083,0,0.149c-0.034,0-0.067,0-0.101,0c0,0.101-0.033,0.167-0.1,0.2c-0.033,0-0.066,0-0.101,0
	c-0.1,0-0.166,0-0.199,0c0,0.101,0,0.167,0,0.2c-0.067,0-0.167,0-0.301,0c0,0.033,0,0.083,0,0.15c-0.033,0.033-0.066,0.05-0.1,0.05
	c-0.1,0-0.167,0-0.2,0c0,0.033,0,0.083,0,0.149c-0.066,0-0.133,0-0.2,0c0,0.067-0.033,0.101-0.1,0.101c0,0.066-0.033,0.1-0.1,0.1
	c-0.067,0-0.117,0-0.15,0c0,0.101,0,0.184,0,0.25c-0.1,0-0.167,0-0.2,0c-0.066,0-0.133,0-0.2,0c0,0.033,0,0.084,0,0.15
	c-0.066,0.033-0.133,0.05-0.199,0.05c0,0.033,0,0.083,0,0.15c-0.067,0-0.134,0-0.2,0c-0.101,0-0.167,0-0.2,0
	c0,0.066-0.017,0.1-0.05,0.1c0,0.066-0.05,0.1-0.15,0.1c-0.066,0-0.116,0-0.149,0c0,0.034,0,0.101,0,0.2c-0.101,0-0.167,0-0.2,0
	c-0.101,0-0.167,0-0.2,0c0,0.033,0,0.101,0,0.2c-0.033,0-0.1,0-0.2,0c-0.033,0-0.083,0-0.149,0c-0.101,0-0.167,0-0.2,0
	s-0.117,0-0.25,0c-0.033,0-0.101,0-0.2,0c-0.033,0-0.083,0-0.15,0c-0.066,0-0.133,0-0.199,0c-0.034,0-0.101,0-0.2,0
	c-0.033,0-0.101,0-0.2,0c-0.033,0-0.083,0-0.15,0c-0.066,0-0.133,0-0.199,0c-0.034,0-0.101,0-0.2,0c-0.066,0-0.134,0-0.2,0
	c0-0.1,0-0.167,0-0.2c-0.066,0-0.134,0-0.2,0s-0.133,0-0.2,0c0-0.1,0-0.166,0-0.2c-0.033,0-0.1,0-0.199,0
	c-0.034,0-0.067-0.033-0.101-0.1v-0.1H57.9c-0.067-0.067-0.101-0.117-0.101-0.15c-0.066,0-0.133,0-0.2,0c0-0.1,0-0.167,0-0.2
	c-0.033,0-0.1,0-0.199,0c0-0.066,0-0.149,0-0.25c-0.034,0-0.067-0.033-0.101-0.1V98.1h-0.2c-0.033-0.066-0.05-0.116-0.05-0.149
	c0-0.101,0-0.167,0-0.2c-0.066,0-0.116-0.017-0.149-0.05c-0.067,0-0.101-0.05-0.101-0.15c0-0.033,0-0.1,0-0.2
	c0-0.066,0-0.116,0-0.149c-0.033,0-0.1,0-0.2,0c0-0.101,0-0.167,0-0.2s0-0.116,0-0.25c0-0.033,0-0.083,0-0.15
	c0-0.066,0-0.133,0-0.199c0-0.101,0-0.167,0-0.2s0-0.101,0-0.2c0-0.033,0-0.083,0-0.15c0-0.066,0-0.133,0-0.199
	c0-0.067,0-0.134,0-0.2c0-0.033,0-0.117,0-0.25c0.101,0,0.167,0,0.2,0c0-0.033,0-0.084,0-0.15s0-0.133,0-0.2c0-0.033,0-0.1,0-0.199
	c0.101,0,0.184,0,0.25,0c0-0.034,0-0.101,0-0.2c0-0.033,0-0.084,0-0.15c0.033,0,0.117,0,0.25,0c0-0.066,0-0.133,0-0.2
	c0-0.033,0-0.1,0-0.199c0.033,0,0.066,0,0.101,0c0-0.034,0-0.067,0-0.101c0.1,0,0.166,0,0.199,0c0-0.1,0-0.184,0-0.25
	c0.067,0,0.134,0,0.2,0s0.15,0,0.25,0c0-0.1,0-0.184,0-0.25c0.033,0,0.066,0,0.101,0c0-0.033,0-0.1,0-0.2c0.1,0,0.166,0,0.199,0
	c0-0.033,0-0.066,0-0.1c0.067,0,0.134,0,0.2,0c0-0.1,0-0.167,0-0.2c0.066,0,0.134,0,0.2,0s0.134,0,0.2,0c0-0.1,0-0.166,0-0.2
	c0.1,0,0.166,0,0.2,0c0.066,0,0.133,0,0.199,0c0-0.066,0-0.149,0-0.25c0.067,0,0.117,0,0.15,0c0-0.033,0-0.066,0-0.1
	c0.1,0,0.167,0,0.2,0c0.1,0,0.166,0,0.2,0c0-0.1,0-0.167,0-0.2c0.066,0,0.133,0,0.199,0c0-0.1,0-0.184,0-0.25
	c0.067,0,0.117,0,0.15,0c0.1,0,0.167,0,0.2,0c0-0.066,0-0.133,0-0.2c0.133,0,0.217,0,0.25,0c0-0.066,0-0.116,0-0.149
	c0.033,0,0.1,0,0.2,0c0.066,0,0.116,0,0.149,0c0-0.101,0-0.167,0-0.2c0.101,0,0.167,0,0.2,0c0-0.066,0-0.134,0-0.2
	c0.033,0,0.1,0,0.2,0c0.033,0,0.1,0,0.2,0c0-0.066,0-0.116,0-0.149c0.033,0,0.083,0,0.149,0c0-0.101,0-0.167,0-0.2
	c0.101,0,0.167,0,0.2,0s0.1,0,0.2,0c0-0.101,0-0.167,0-0.2c0.066,0,0.133,0,0.2,0c0.066,0,0.133,0,0.199,0c0-0.066,0-0.15,0-0.25
	c0.067,0,0.134,0,0.2,0c0-0.066,0-0.116,0-0.15c0.033,0,0.101,0,0.2,0c0-0.1,0-0.166,0-0.199c0.033,0,0.083,0,0.15,0
	c0-0.101,0-0.167,0-0.2c0.066,0,0.133,0,0.199,0c0.067,0,0.134,0,0.2,0c0-0.033,0-0.101,0-0.2c0.033,0,0.101,0,0.2,0
	c0-0.066,0-0.116,0-0.15c0.033,0,0.066,0,0.1,0c0.134,0,0.233,0,0.301,0c0-0.1,0-0.166,0-0.199c0.033,0,0.1,0,0.199,0
	c0-0.034,0-0.101,0-0.2c0.034,0,0.101,0,0.2,0c0.033,0,0.066,0,0.101,0c0-0.033,0-0.101,0-0.2c0.1,0,0.166,0,0.199,0
	c0-0.066,0-0.134,0-0.2c0.067,0,0.15,0,0.25,0c0.034,0,0.067,0,0.101,0c0-0.1,0-0.166,0-0.2c0.1,0,0.166,0,0.2,0
	c0.133,0,0.216,0,0.25,0c0-0.033,0-0.1,0-0.199c0.066,0,0.133,0,0.199,0c0-0.034,0-0.101,0-0.2c0.067,0,0.117,0,0.15,0
	c0.1,0,0.167,0,0.2,0c0-0.033,0-0.084,0-0.15c0.1,0,0.166,0,0.2,0c0-0.066,0-0.133,0-0.2c0.066,0,0.133,0,0.199,0
	c0.067,0,0.117,0,0.15,0c0-0.033,0-0.1,0-0.199c0.1,0,0.167,0,0.2,0c0-0.034,0-0.084,0-0.15c0.066,0,0.133,0,0.2,0
	c0-0.066,0-0.15,0-0.25c0-0.066,0-0.134,0-0.2c-0.067,0-0.134,0-0.2,0c0-0.033,0-0.1,0-0.2c-0.033,0-0.084,0-0.15,0
	c-0.033-0.033-0.05-0.083-0.05-0.149s0-0.134,0-0.2c-0.033,0-0.083,0-0.15,0c0-0.033,0-0.1,0-0.2c-0.066,0-0.1-0.017-0.1-0.05
	c-0.066,0-0.1-0.05-0.1-0.15c0-0.033,0-0.066,0-0.1c-0.034,0-0.101,0-0.2,0c0-0.1,0-0.184,0-0.25c-0.033,0-0.066-0.033-0.101-0.1
	c-0.066,0-0.1-0.051-0.1-0.15c0-0.033,0-0.1,0-0.2c-0.033,0-0.083,0-0.15,0c0-0.033,0-0.066,0-0.1c-0.066,0-0.1-0.033-0.1-0.101
	c-0.066-0.033-0.1-0.066-0.1-0.1c0-0.066,0-0.15,0-0.25c-0.034,0-0.117,0-0.25,0c0-0.033,0-0.066,0-0.1c-0.034,0-0.101,0-0.2,0
	c0-0.101,0-0.167,0-0.2c0-0.101,0-0.167,0-0.2c-0.033,0-0.066,0-0.101,0c0-0.066,0-0.15,0-0.25c-0.1,0-0.183,0-0.25,0
	c0-0.066,0-0.116,0-0.15c-0.033,0-0.066-0.033-0.1-0.1c-0.066-0.033-0.1-0.066-0.1-0.1c0-0.101,0-0.167,0-0.2
	c-0.034,0-0.067,0-0.101,0c0-0.066,0-0.134,0-0.2H64.4c-0.034-0.066-0.051-0.116-0.051-0.15c0-0.1,0-0.166,0-0.199
	c-0.1,0-0.166,0-0.199,0c0-0.067,0-0.134,0-0.2c-0.067,0-0.117,0-0.15,0c-0.1-0.066-0.15-0.134-0.15-0.2c0-0.1,0-0.167,0-0.2
	c-0.033,0-0.066,0-0.1,0c0-0.1,0-0.166,0-0.2c-0.1,0-0.15-0.017-0.15-0.05c-0.033,0-0.05-0.05-0.05-0.149c0-0.067,0-0.117,0-0.15
	c-0.066,0-0.133,0-0.2,0c0-0.1,0-0.167,0-0.2c0-0.1,0-0.166,0-0.2c-0.066,0-0.116-0.017-0.149-0.05c-0.033,0-0.05-0.05-0.05-0.149
	c0-0.034,0-0.084,0-0.15c-0.067,0-0.117,0-0.15,0c0-0.1,0-0.184,0-0.25c-0.1,0-0.15-0.017-0.15-0.05
	c-0.033-0.066-0.05-0.117-0.05-0.15s0-0.1,0-0.2c-0.066,0-0.133,0-0.2,0c0-0.033,0-0.083,0-0.149c-0.066,0-0.133,0-0.199,0
	c0-0.066,0-0.134,0-0.2c-0.067,0-0.134,0-0.2,0c0-0.033,0-0.1,0-0.2c-0.101,0-0.15-0.017-0.15-0.05c-0.033,0-0.05-0.05-0.05-0.15
	c0-0.033,0-0.083,0-0.149c-0.033,0-0.1,0-0.2,0c0-0.066,0-0.134,0-0.2c-0.066,0-0.116,0-0.149,0c0-0.033,0-0.116,0-0.25
	c0-0.033,0-0.083,0-0.15c-0.101,0-0.167,0-0.2,0c0-0.066,0-0.133,0-0.199c-0.101,0-0.167,0-0.2,0c0-0.067,0-0.134,0-0.2
	c0-0.033,0-0.101,0-0.2c-0.033,0-0.083,0-0.15,0c-0.033-0.033-0.05-0.066-0.05-0.1c0-0.101,0-0.184,0-0.25c-0.033,0-0.083,0-0.149,0
	c0-0.067,0-0.134,0-0.2c-0.101,0-0.15-0.017-0.15-0.05c-0.033,0-0.05-0.067-0.05-0.2c0-0.033,0-0.066,0-0.101
	c-0.033,0-0.117,0-0.25,0c0-0.1,0-0.166,0-0.199c-0.033,0-0.084-0.034-0.15-0.101c-0.033,0-0.05-0.05-0.05-0.149
	c0-0.034,0-0.101,0-0.2c-0.033,0-0.083,0-0.15,0c0-0.033,0-0.066,0-0.101c-0.066,0-0.1-0.033-0.1-0.1
	c-0.066-0.033-0.1-0.066-0.1-0.1c0-0.067,0-0.134,0-0.2c-0.034,0-0.101,0-0.2,0c-0.033,0-0.101,0-0.2,0c-0.167,0-0.35,0-0.55,0
	c-0.066,0-0.134,0-0.2,0s-0.134,0-0.2,0s-0.133,0-0.2,0c-0.3,0-0.616,0-0.949,0c-0.034,0-0.067,0-0.101,0c-0.467,0-0.866,0-1.2,0
	c-0.066,0-0.116,0-0.149,0c-0.434,0-0.834,0-1.2,0c-0.066,0-0.134,0-0.2,0s-0.116,0-0.149,0c-0.434,0-0.834,0-1.2,0
	c-0.033,0-0.084,0-0.15,0c-0.399,0-0.8,0-1.2,0c-0.033,0-0.1,0-0.199,0c-0.034,0-0.084,0-0.15,0c-0.3,0-0.634,0-1,0
	c-0.033,0-0.1,0-0.2,0c-0.033,0-0.066,0-0.1,0c-0.434,0-0.817,0-1.15,0c-0.1,0-0.2,0-0.3,0c-0.267,0-0.55,0-0.85,0
	c-0.1,0-0.167,0-0.2,0c-0.067,0-0.133,0-0.2,0s-0.15,0-0.25,0c-0.367,0-0.733,0-1.1,0c-0.033,0-0.1,0-0.2,0c-0.4,0-0.784,0-1.15,0
	c-0.033,0-0.1,0-0.2,0c-0.033,0-0.1,0-0.2,0c0-0.066,0-0.15,0-0.25c-0.033,0-0.083,0-0.15,0s-0.15,0-0.25,0c-0.033,0-0.1,0-0.2,0
	c-0.033,0-0.083,0-0.15,0c-0.066,0-0.133,0-0.2,0c-0.067,0-0.133,0-0.2,0c0-0.066,0-0.117,0-0.15c-0.033,0-0.1,0-0.2,0
	c-0.033,0-0.083,0-0.15,0c-0.066,0-0.133,0-0.2,0c0-0.1,0-0.166,0-0.2c-0.034,0-0.1,0-0.2,0c-0.033,0-0.117,0-0.25,0
	c0-0.066,0-0.133,0-0.199c-0.033,0-0.067,0-0.1,0c0-0.067,0-0.117,0-0.15c-0.1,0-0.183,0-0.25,0c-0.033,0-0.066-0.017-0.1-0.05
	c-0.066-0.066-0.1-0.117-0.1-0.15c-0.034,0-0.067-0.033-0.1-0.1c-0.067-0.033-0.1-0.066-0.1-0.101c-0.033,0-0.067-0.033-0.1-0.1
	v-0.1h-0.15c-0.033-0.067-0.05-0.117-0.05-0.15c-0.067,0-0.15,0-0.25,0c0-0.1,0-0.167,0-0.2c-0.034,0-0.067,0-0.1,0
	c-0.133,0-0.217-0.033-0.25-0.1V73.8c0-0.066,0-0.133,0-0.2c-0.1,0-0.167,0-0.2,0c0-0.066,0-0.116,0-0.149c-0.066,0-0.133,0-0.2,0
	c0-0.101,0-0.167,0-0.2s0-0.1,0-0.2c-0.067,0-0.117,0-0.15,0c0-0.033,0-0.1,0-0.2c0-0.066,0-0.116,0-0.149c-0.1,0-0.167,0-0.2,0
	c0-0.101,0-0.167,0-0.2s0-0.116,0-0.25c0-0.033,0-0.083,0-0.15c-0.1,0-0.167,0-0.2,0c0-0.066,0-0.133,0-0.199c0-0.101,0-0.167,0-0.2
	s0-0.101,0-0.2c0-0.033,0-0.083,0-0.15c0-0.066,0-0.133,0-0.199c0-0.067,0-0.134,0-0.2c-0.066,0-0.133,0-0.2,0
	c0-0.033,0-0.117,0-0.25c0-0.033,0-0.084,0-0.15s0-0.133,0-0.2c0-2.899,0-5.833,0-8.8c0-0.033,0-0.1,0-0.2c0-4.5,0-9.033,0-13.6
	c0-0.033,0-0.083,0-0.15c0-0.067,0-0.133,0-0.2c0.066,0,0.133,0,0.2,0c0-0.1,0-0.167,0-0.2c0-0.034,0-0.1,0-0.2
	c0-0.033,0-0.083,0-0.15c0-0.067,0-0.133,0-0.2c0-0.066,0-0.133,0-0.2c0-0.034,0-0.117,0-0.25c0-0.034,0-0.083,0-0.15
	c0-0.066,0-0.133,0-0.2c0.033,0,0.1,0,0.2,0c0-0.033,0-0.1,0-0.2c0-0.033,0-0.1,0-0.2c0-0.034,0-0.083,0-0.15c0-0.066,0-0.133,0-0.2
	c0.033,0,0.1,0,0.2,0c0-0.033,0-0.1,0-0.2c0-0.033,0-0.066,0-0.1c0.034,0,0.083,0,0.15,0c0-0.1,0-0.183,0-0.25c0-0.1,0-0.183,0-0.25
	c0.066,0,0.133,0,0.2,0c0-0.033,0-0.1,0-0.2c0-0.033,0-0.067,0-0.1c0.033,0,0.1,0,0.2,0c0-0.1,0-0.167,0-0.2c0-0.1,0-0.167,0-0.2
	c0.033,0,0.117,0,0.25,0c0-0.067,0-0.15,0-0.25c0.033,0,0.066,0,0.1,0c0-0.033,0-0.067,0-0.1c0.1,0,0.183,0,0.25,0
	c0-0.1,0-0.167,0-0.2c0.033,0,0.1,0,0.2,0c0-0.1,0-0.183,0-0.25c0-0.066,0-0.133,0-0.2c0.033,0,0.067,0,0.1,0
	c0-0.067,0-0.117,0-0.15c0.1,0,0.167,0,0.2,0c0.1,0,0.167,0,0.2,0c0-0.1,0-0.167,0-0.2c0.067,0,0.15,0,0.25,0c0-0.067,0-0.133,0-0.2
	c0.033,0,0.067,0,0.1,0c0.133,0,0.217,0,0.25,0c0-0.066,0-0.117,0-0.15c0.1,0,0.167,0,0.2,0c0-0.1,0-0.167,0-0.2
	c0.066,0,0.133,0,0.2,0c0.067,0,0.117,0,0.15,0c0.1,0,0.167,0,0.2,0c0-0.1,0-0.167,0-0.2c0.067,0,0.133,0,0.2,0
	c0.066,0,0.133,0,0.2,0c0.067,0,0.117,0,0.15,0c0-0.067,0-0.15,0-0.25c0.1,0,0.167,0,0.2,0c0.1,0,0.183,0,0.25,0s0.117,0,0.15,0
	c0.1,0,0.167,0,0.2,0c0-0.067,0-0.117,0-0.15c0.1,0,0.167,0,0.2,0c0.034,0,0.1,0,0.2,0c0-0.1,0-0.167,0-0.2c0.067,0,0.117,0,0.15,0
	c0.1,0,0.167,0,0.2,0c0.1,0,0.167,0,0.2,0c0.034,0,0.117,0,0.25,0c0.034,0,0.083,0,0.15,0c0.1,0,0.167,0,0.2,0
	c0.267,0,0.517,0,0.75,0c0.033,0,0.1,0,0.2,0c0.033,0,0.083,0,0.15,0c0.1,0,0.183,0,0.25,0s0.133,0,0.2,0c0,0.033,0,0.1,0,0.2
	c0.033,0,0.1,0,0.2,0c0.033,0,0.083,0,0.15,0c0,0.033,0,0.083,0,0.15c0.067,0,0.133,0,0.2,0s0.133,0,0.2,0c0.033,0,0.1,0,0.2,0
	c0.033,0,0.067,0.017,0.1,0.05c0,0.067,0,0.133,0,0.2c0.1,0,0.2,0,0.3,0c0.034,0,0.1,0,0.2,0c0.033,0,0.067,0.017,0.1,0.05
	c0.066,0,0.1,0.05,0.1,0.15c0.033,0,0.066,0,0.1,0h0.15c0.033,0.033,0.05,0.1,0.05,0.2c0.067,0,0.15,0,0.25,0
	c0,0.033,0,0.083,0,0.15c0.033,0,0.1,0,0.2,0c0.033,0,0.066,0.017,0.1,0.05c0,0.033,0,0.083,0,0.15c0.101,0,0.167,0,0.2,0
	c0,0.033,0,0.1,0,0.2c0.066,0,0.15,0,0.25,0c0.066,0,0.116,0,0.15,0c0,0.033,0,0.083,0,0.15c0.1,0,0.166,0,0.199,0
	c0,0.066,0,0.133,0,0.2c0.101,0,0.167,0,0.2,0c0,0.067,0,0.15,0,0.25c0.066,0,0.134,0,0.2,0c0,0.034,0,0.1,0,0.2
	c0.066,0,0.116,0,0.15,0c0,0.033,0,0.067,0,0.1c0.1,0,0.149,0.033,0.149,0.1c0.033,0.033,0.05,0.083,0.05,0.15c0,0.033,0,0.1,0,0.2
	c0.034,0,0.101,0,0.2,0c0,0.034,0,0.1,0,0.2c0.066,0,0.134,0,0.2,0c0,0.033,0,0.067,0,0.1c0,0.1,0,0.167,0,0.2
	c0.1,0,0.167,0.034,0.2,0.1v0.15c0,0.067,0,0.15,0,0.25H52.6c0.034,0.034,0.051,0.067,0.051,0.1c0,0.1,0,0.167,0,0.2
	c0,0.066,0,0.133,0,0.2c0.033,0,0.1,0,0.199,0c0,0.067,0,0.117,0,0.15c0,0.1,0,0.167,0,0.2c0,0.1,0,0.167,0,0.2
	c0.034,0,0.101,0,0.2,0c0,0.066,0,0.133,0,0.2c0,0.067,0,0.117,0,0.15c0,0.133,0,0.216,0,0.25c0,0.066,0,0.133,0,0.2
	c0,0.067,0,0.133,0,0.2c0,0.066,0,0.117,0,0.15c0.066,0,0.117,0,0.15,0c0,0.1,0,0.167,0,0.2c0,0.033,0,0.1,0,0.2
	c0,0.067,0,0.133,0,0.2c0,0.9,0,1.8,0,2.7c0,0.033,0,0.101,0,0.2c0,0.033,0,0.083,0,0.15c0.1,0,0.149,0.017,0.149,0.05
	c0.034,0.033,0.051,0.083,0.051,0.149c0,0.034,0,0.101,0,0.2c0.033,0,0.1,0,0.199,0c0,0.033,0,0.084,0,0.15c0.034,0,0.084,0,0.15,0
	c0,0.1,0,0.184,0,0.25c0.066,0,0.15,0,0.25,0c0,0.066,0,0.133,0,0.2c0.1,0,0.15,0.017,0.15,0.05c0.033,0,0.05,0.05,0.05,0.149
	c0,0.034,0,0.067,0,0.101c0.033,0,0.1,0,0.2,0c0,0.1,0,0.166,0,0.2c0.033,0,0.083,0.033,0.149,0.1c0,0.033,0,0.083,0,0.15
	c0,0.033,0,0.1,0,0.199c0.066,0,0.134,0,0.2,0c0,0.034,0,0.067,0,0.101c0,0.133,0,0.217,0,0.25c0.033,0,0.1,0,0.2,0
	c0,0.066,0,0.133,0,0.2c0.033,0,0.083,0.033,0.149,0.1c0.034,0,0.051,0.05,0.051,0.15c0,0.033,0,0.066,0,0.1
	c0.033,0,0.083,0.033,0.149,0.1c0,0.034,0,0.067,0,0.101c0,0.066,0,0.133,0,0.2c0.066,0,0.134,0,0.2,0c0,0.066,0,0.133,0,0.199
	c0.033,0,0.083,0,0.15,0c0.066,0.067,0.1,0.117,0.1,0.15c0,0.134,0,0.217,0,0.25c0.033,0,0.066,0.033,0.1,0.1
	c0.067,0,0.101,0.034,0.101,0.101c0.033,0,0.083,0,0.149,0c0,0.066,0,0.116,0,0.149c0,0.101,0,0.167,0,0.2c0.067,0,0.134,0,0.2,0
	c0.033,0,0.101,0,0.2,0c0-0.033,0-0.1,0-0.2c0.033,0,0.066,0,0.1,0c0.101,0,0.167,0,0.2,0c0.101,0,0.184,0,0.25,0
	c0.033,0,0.117,0,0.25,0c0-0.033,0-0.083,0-0.149c0.033,0,0.066,0,0.101,0c0.1,0,0.166,0,0.199,0c0.067,0,0.134,0,0.2,0
	c0-0.066,0-0.134,0-0.2c0.066,0,0.15,0,0.25,0c0.033,0,0.066,0,0.101,0c0.1,0,0.166,0,0.199,0c0-0.033,0-0.116,0-0.25
	c0.067,0,0.134,0,0.2,0s0.134,0,0.2,0s0.134,0,0.2,0c0.1,0,0.166,0,0.2,0c0-0.033,0-0.083,0-0.15c0.066,0,0.133,0,0.199,0
	c0.067,0,0.117,0,0.15,0c0.1,0,0.167,0,0.2,0c0-0.066,0-0.133,0-0.199c0.1,0,0.166,0,0.2,0c0.066,0,0.133,0,0.199,0
	c0.067,0,0.117,0,0.15,0c0-0.067,0-0.134,0-0.2c0.1,0,0.167,0,0.2,0c0.133,0,0.217,0,0.25,0s0.1,0,0.2,0c0.066,0,0.116,0,0.149,0
	c0-0.033,0-0.101,0-0.2c0.101,0,0.167,0,0.2,0s0.1,0,0.2,0c0.033,0,0.1,0,0.2,0c0-0.033,0-0.066,0-0.1c0.033,0,0.083,0,0.149,0
	c0.101,0,0.167,0,0.2,0c0-0.101,0-0.184,0-0.25c0.033,0,0.1,0,0.2,0c0.066,0,0.133,0,0.2,0c0.066,0,0.133,0,0.199,0
	c0-0.067,0-0.134,0-0.2c0.067,0,0.134,0,0.2,0c0.033,0,0.101,0,0.2,0c0.033,0,0.083,0,0.15,0c0-0.033,0-0.117,0-0.25
	c0.066,0,0.133,0,0.199,0c0.067,0,0.134,0,0.2,0c0.033,0,0.101,0,0.2,0c0-0.033,0-0.066,0-0.101c0.033,0,0.066,0,0.1,0
	c0.134,0,0.233,0,0.301,0c0.033,0,0.1,0,0.199,0c0.034,0,0.101,0,0.2,0c0-0.1,0-0.166,0-0.199c0.033,0,0.066,0,0.101,0
	c0.1,0,0.166,0,0.199,0c0.067,0,0.15,0,0.25,0c0.034,0,0.067,0,0.101,0c0.1,0,0.166,0,0.2,0c0,0.033,0,0.1,0,0.199
	c0.133,0,0.216,0,0.25,0c0.066,0,0.133,0,0.199,0c0.067,0,0.117,0,0.15,0c0.1,0,0.167,0,0.2,0c0,0.034,0,0.067,0,0.101
	c0.1,0,0.166,0,0.2,0c0.066,0,0.133,0,0.199,0c0,0.133,0,0.217,0,0.25c0.067,0,0.117,0,0.15,0c0.1,0,0.167,0,0.2,0
	c0,0.066,0,0.133,0,0.2c0.066,0,0.133,0,0.2,0c0,0.066,0,0.149,0,0.25c0.1,0,0.183,0,0.25,0c0,0.033,0,0.066,0,0.1
	c0.066,0,0.116,0.033,0.149,0.1c0,0.034,0,0.067,0,0.101c0.101,0,0.15,0.033,0.15,0.1c0.033,0,0.05,0.033,0.05,0.101
	c0.033,0,0.083,0,0.15,0c0.033,0.066,0.05,0.133,0.05,0.199c0,0.067,0,0.117,0,0.15c0.066,0,0.116,0.033,0.149,0.1
	c0.034,0.067,0.051,0.117,0.051,0.15c0,0.066,0,0.134,0,0.2c0.066,0,0.116,0,0.149,0c0,0.066,0,0.116,0,0.149c0,0.101,0,0.167,0,0.2
	c0,0.101,0,0.167,0,0.2c0,0.066,0,0.134,0,0.2s0,0.116,0,0.149c0,0.101,0,0.167,0,0.2s0,0.101,0,0.2c0,0.066,0,0.15,0,0.25
	c0,0.066,0,0.116,0,0.15c0,0.1,0,0.166,0,0.199c0,0.034,0,0.101,0,0.2c0,0.033,0,0.101,0,0.2c0,0.033,0,0.083,0,0.15
	c-0.033,0-0.083,0-0.149,0c0,0.1,0,0.166,0,0.199c0,0.034,0,0.101,0,0.2c0,0.033-0.017,0.101-0.051,0.2c-0.033,0-0.083,0-0.149,0
	c0,0.066,0,0.134,0,0.2c-0.101,0-0.167,0-0.2,0c0,0.066,0,0.133,0,0.2c0,0.033-0.017,0.083-0.05,0.149c0,0.033-0.05,0.05-0.15,0.05
	c0,0.034,0,0.084,0,0.15c-0.033,0-0.083,0-0.149,0c0,0.066-0.017,0.1-0.051,0.1c-0.033,0.067-0.1,0.101-0.199,0.101
	c-0.067,0-0.134,0-0.2,0c0,0.033,0,0.1,0,0.2c-0.033,0-0.101,0-0.2,0c0,0.033,0,0.066,0,0.1c-0.033,0.066-0.083,0.1-0.15,0.1
	c-0.066,0-0.133,0-0.199,0c-0.034,0-0.101,0-0.2,0c0,0.034,0,0.084,0,0.15c-0.033,0-0.101,0-0.2,0c-0.033,0-0.083,0-0.15,0
	c-0.066,0-0.133,0-0.199,0c0,0.1-0.017,0.15-0.051,0.15c0,0.066-0.066,0.1-0.199,0.1c-0.034,0-0.101,0-0.2,0
	c-0.033,0-0.066,0-0.101,0c0,0.033-0.033,0.066-0.1,0.1c-0.033,0.067-0.083,0.101-0.15,0.101c-0.033,0-0.1,0-0.199,0
	c-0.034,0-0.067,0-0.101,0c-0.1,0-0.166,0-0.2,0c0,0.033,0,0.1,0,0.2c-0.1,0-0.166,0-0.199,0c0,0.033,0,0.066,0,0.1
	c-0.067,0-0.167,0-0.301,0c-0.033,0-0.066,0-0.1,0c-0.1,0-0.167,0-0.2,0c0,0.1,0,0.184,0,0.25c-0.066,0-0.133,0-0.2,0
	c-0.066,0-0.133,0-0.199,0c-0.067,0-0.117,0-0.15,0c0,0.033,0,0.1,0,0.2c-0.1,0-0.167,0-0.2,0c-0.066,0-0.133,0-0.2,0
	c-0.066,0-0.133,0-0.199,0c-0.067,0-0.134,0-0.2,0c0,0.033,0,0.066,0,0.1c-0.101,0-0.167,0-0.2,0s-0.1,0-0.2,0
	c-0.066,0-0.116,0-0.149,0c0,0.101,0,0.167,0,0.2c-0.101,0-0.167,0-0.2,0c-0.101,0-0.167,0-0.2,0s-0.1,0-0.2,0c0,0.1,0,0.184,0,0.25
	c-0.033,0-0.083,0-0.149,0c-0.101,0-0.167,0-0.2,0s-0.117,0-0.25,0c0,0.066-0.017,0.116-0.05,0.15c0,0.066-0.051,0.1-0.15,0.1
	c-0.033,0-0.083,0-0.15,0c-0.066,0-0.133,0-0.199,0c-0.034,0-0.101,0-0.2,0c0,0.033,0,0.066,0,0.1c-0.033,0-0.101,0-0.2,0
	c-0.033,0-0.083,0-0.15,0c-0.066,0-0.133,0-0.199,0c0,0.101-0.017,0.15-0.051,0.15c0,0.033-0.05,0.05-0.149,0.05
	c-0.066,0-0.134,0-0.2,0s-0.134,0-0.2,0c0,0.101-0.017,0.15-0.05,0.15c-0.033,0.033-0.083,0.05-0.15,0.05c-0.033,0-0.1,0-0.199,0
	c-0.034,0-0.067,0-0.101,0c-0.1,0-0.184,0-0.25,0c0,0.066,0,0.134,0,0.2c-0.066,0-0.133,0-0.2,0c-0.033,0-0.1,0-0.199,0
	c-0.034,0-0.067,0-0.101,0c0,0.066,0,0.116,0,0.149c-0.133,0-0.217,0-0.25,0c-0.066,0-0.149,0-0.25,0c-0.033,0-0.1,0-0.2,0
	c-0.033,0-0.066,0-0.1,0c0,0.101,0,0.167,0,0.2c-0.1,0-0.167,0-0.2,0c-0.066,0-0.133,0-0.2,0c-0.066,0-0.116,0-0.149,0
	c0,0.066-0.033,0.117-0.101,0.15c-0.033,0.033-0.066,0.05-0.1,0.05c-0.134,0-0.217,0-0.25,0c-0.066,0-0.134,0-0.2,0
	s-0.116,0-0.149,0c-0.101,0-0.167,0-0.2,0c-0.101,0-0.167,0-0.2,0c-0.066,0-0.134,0-0.2,0s-0.116,0-0.149,0c-0.101,0-0.167,0-0.2,0
	s-0.101,0-0.2,0s-0.184,0-0.25,0s-0.116-0.017-0.15-0.05c0-0.033,0-0.084,0-0.15c-0.1,0-0.166,0-0.199,0c-0.034,0-0.101,0-0.2,0
	c0,1.066,0,2.167,0,3.3c0,0.034,0,0.084,0,0.15c0.1,0,0.166,0,0.2,0c0.033,0,0.1,0,0.199,0c0.034,0,0.084,0,0.15,0
	c0.333,0,0.667,0,1,0c0.033,0,0.1,0,0.2,0c0.033,0,0.1,0,0.2,0c0.033,0,0.083,0,0.149,0c0.334,0,0.667,0,1,0c0.033,0,0.101,0,0.2,0
	c0.033,0,0.066,0,0.1,0c0.334,0,0.667,0,1,0c0.067,0,0.134,0,0.2,0s0.15,0,0.25,0c0.267,0,0.566,0,0.9,0c0.1,0,0.166,0,0.2,0
	c0.066,0,0.133,0,0.199,0c0.367,0,0.733,0,1.101,0c0.133,0,0.217,0,0.25,0s0.1,0,0.2,0c0.267,0,0.566,0,0.899,0
	c0.101,0,0.167,0,0.2,0s0.1,0,0.2,0c0.066,0,0.133,0,0.2,0c0.066,0,0.133,0,0.199,0c0.067,0,0.134,0,0.2,0c0.033,0,0.101,0,0.2,0
	c0.033,0,0.083,0,0.15,0c0.066,0,0.133,0,0.199,0c0.067,0,0.134,0,0.2,0c0,0.1,0,0.184,0,0.25c0.033,0,0.101,0,0.2,0
	c0.033,0,0.066,0,0.1,0c0.134,0,0.233,0,0.301,0c0.033,0,0.1,0,0.199,0c0,0.033,0,0.1,0,0.2c0.034,0,0.101,0,0.2,0
	c0.033,0,0.066,0,0.101,0H64.8c0.033,0.033,0.05,0.1,0.05,0.2c0.067,0,0.15,0,0.25,0c0,0.033,0,0.083,0,0.149
	c0.034,0,0.067,0,0.101,0c0.1,0,0.166,0.017,0.2,0.05c0,0.034,0,0.084,0,0.15c0.133,0,0.199,0.017,0.199,0.05
	c0.034,0,0.051,0.05,0.051,0.15c0.066,0,0.133,0,0.199,0c0.067,0,0.117,0,0.15,0c0,0.033,0,0.083,0,0.149c0.1,0,0.167,0,0.2,0
	c0,0.067,0,0.134,0,0.2c0.1,0,0.166,0,0.2,0c0,0.066,0,0.15,0,0.25c0.066,0,0.116,0.017,0.149,0.05c0.033,0,0.05,0.051,0.05,0.15
	c0.067,0,0.117,0,0.15,0c0,0.033,0,0.066,0,0.1c0,0.101,0,0.184,0,0.25c0.1,0,0.167,0,0.2,0c0,0.034,0,0.101,0,0.2
	c0,0.033,0,0.101,0,0.2c0.066,0,0.133,0,0.2,0c0,0.033,0,0.066,0,0.1c0.1,0,0.183,0,0.25,0c0,0.101,0,0.167,0,0.2
	c0,0.066,0,0.15,0,0.25c0.066,0,0.116,0,0.149,0c0,0.066,0,0.15,0,0.25h0.15c0.033,0.033,0.05,0.066,0.05,0.101
	c0,0.1,0,0.166,0,0.199c0.033,0,0.1,0,0.2,0c0,0.067,0,0.134,0,0.2c0.066,0,0.116,0,0.149,0c0.034,0.066,0.051,0.117,0.051,0.15
	c0,0.1,0,0.166,0,0.2c0.066,0,0.116,0,0.149,0c0,0.1,0,0.166,0,0.199c0.101,0,0.15,0.034,0.15,0.101c0.033,0,0.05,0.033,0.05,0.1
	s0,0.117,0,0.15c0.033,0,0.083,0.033,0.15,0.1c0.033,0.066,0.05,0.117,0.05,0.15c0.033,0,0.1,0,0.2,0c0,0.066,0,0.133,0,0.2
	c0,0.066,0,0.133,0,0.199c0.1,0,0.166,0,0.199,0c0,0.067,0,0.117,0,0.15c0.101,0,0.167,0,0.2,0c0,0.1,0,0.167,0,0.2
	c0.033,0,0.084,0.017,0.15,0.05c0.033,0,0.05,0.05,0.05,0.15c0,0.066,0,0.133,0,0.199c0.033,0,0.083,0,0.15,0
	c0,0.067,0,0.117,0,0.15c0.066,0,0.1,0.017,0.1,0.05c0.066,0.101,0.1,0.167,0.1,0.2s0,0.1,0,0.2c0.034,0,0.101,0,0.2,0
	c0,0.033,0,0.083,0,0.149c0.033,0,0.084,0.017,0.15,0.051c0.033,0.066,0.05,0.116,0.05,0.149c0,0.101,0,0.167,0,0.2
	c0.033,0,0.083,0,0.15,0c0,0.033,0,0.1,0,0.2h0.149c0.066,0.033,0.101,0.083,0.101,0.149c0,0.067,0,0.134,0,0.2
	c0.033,0,0.1,0,0.199,0c0,0.101,0,0.184,0,0.25c0.034,0,0.084,0.017,0.15,0.05c0.033,0,0.05,0.051,0.05,0.15c0,0.033,0,0.083,0,0.15
	c0.033,0,0.084,0.017,0.15,0.05c0,0.033,0,0.083,0,0.149c0,0.034,0,0.101,0,0.2c0.066,0,0.133,0,0.2,0c0,0.033,0,0.101,0,0.2
	c0,0.033,0,0.083,0,0.15c0.033,0,0.1,0,0.199,0c0,0.066,0,0.133,0,0.199c0.034,0,0.067,0.017,0.101,0.051v0.149
	c0,0.033,0,0.084,0,0.15c0.1,0,0.184,0,0.25,0c0,0.1,0,0.184,0,0.25c0.066,0,0.149,0,0.25,0c0,0.066,0,0.133,0,0.2
	c0.033,0,0.1,0,0.2,0c0,0.033,0,0.1,0,0.199c0.033,0,0.066,0,0.1,0c0,0.034,0,0.067,0,0.101c0,0.1,0,0.166,0,0.2
	c0.1,0,0.167,0,0.2,0c0,0.1,0,0.183,0,0.25c0.066,0,0.149,0,0.25,0c0,0.033,0,0.1,0,0.199c0,0.034,0,0.067,0,0.101
	c0.033,0,0.1,0,0.2,0c0,0.133,0,0.217,0,0.25c0.033,0,0.066,0.033,0.1,0.1v0.101c0,0.066,0,0.149,0,0.25c0.1,0,0.167,0,0.2,0
	c0,0.033,0,0.066,0,0.1c0,0.1,0,0.167,0,0.2c0.066,0,0.133,0,0.2,0c0,0.066,0,0.133,0,0.2c0.066,0,0.133,0,0.199,0
	c0.067,0.066,0.101,0.133,0.101,0.199c0,0.067,0,0.117,0,0.15c0.033,0,0.066,0,0.1,0c0,0.134,0,0.217,0,0.25
	c0.101,0,0.15,0.033,0.15,0.1c0.033,0,0.05,0.034,0.05,0.101s0,0.116,0,0.149c0.066,0,0.134,0,0.2,0c0,0.101,0,0.167,0,0.2
	c0.066,0,0.116,0.017,0.149,0.05c0,0.067,0,0.117,0,0.15c0,0.066,0,0.134,0,0.2c0.101,0,0.167,0,0.2,0c0,0.066,0,0.116,0,0.149
	c0.101,0,0.167,0,0.2,0c0,0.101,0,0.167,0,0.2c0.066,0,0.134,0,0.2,0c0,0.033,0,0.101,0,0.2c0,0.066,0,0.15,0,0.25
	c0.066,0,0.116,0,0.149,0c0,0.066,0,0.116,0,0.15c0.134,0,0.217,0,0.25,0c0,0.1,0,0.166,0,0.199c0,0.034,0,0.101,0,0.2
	c0.101,0,0.167,0,0.2,0s0.101,0,0.2,0c0.066,0,0.116,0,0.15,0c0-0.1,0-0.166,0-0.2c0.1,0,0.166,0,0.199,0c0-0.033,0-0.1,0-0.199
	c0.034,0,0.101,0,0.2,0c0.033,0,0.101,0,0.2,0c0-0.034,0-0.084,0-0.15c0.033,0,0.083,0,0.15,0c0-0.1,0-0.184,0-0.25
	c0.1,0,0.183,0,0.25,0c0-0.1,0-0.167,0-0.2c0.033,0,0.1,0,0.199,0c0.034,0,0.084,0,0.15,0c0-0.033,0-0.1,0-0.2
	c0.066,0,0.134,0,0.2,0c0-0.033,0-0.083,0-0.149c0.066,0,0.133,0,0.2,0c0.033,0,0.1,0,0.199,0c0-0.066,0-0.134,0-0.2
	c0.034,0,0.084,0,0.15,0c0-0.033,0-0.1,0-0.2c0.066,0,0.134,0,0.2,0s0.133,0,0.2,0c0-0.033,0-0.1,0-0.2c0.033,0,0.116,0,0.25,0
	c0-0.033,0-0.083,0-0.149c0.033,0,0.083,0,0.149,0s0.134,0,0.2,0c0-0.066,0-0.134,0-0.2c0.033,0,0.1,0,0.2,0c0-0.033,0-0.116,0-0.25
	c0.033,0,0.1,0,0.2,0c0.033,0,0.066,0,0.1,0c0-0.033,0-0.083,0-0.15c0.1,0,0.184,0,0.25,0c0-0.066,0-0.133,0-0.199
	c0.033,0,0.1,0,0.2,0c0.033,0,0.066,0,0.1,0c0-0.067,0-0.134,0-0.2c0.134,0,0.217,0,0.25,0c0.101,0,0.167,0,0.2,0
	c0-0.033,0-0.101,0-0.2c0.066,0,0.15,0,0.25,0c0.033,0,0.066,0,0.1,0c0-0.033,0-0.066,0-0.1c0.101,0,0.167,0,0.2,0
	c0-0.101,0-0.184,0-0.25c0.101,0,0.167,0,0.2,0c0-0.067,0-0.134,0-0.2c0.066,0,0.134,0,0.2,0c0-0.033,0-0.117,0-0.25
	c0-0.033,0-0.066,0-0.101c0-0.1,0-0.166,0-0.199c0-0.067,0-0.15,0-0.25c0-0.034,0-0.101,0-0.2c0-0.033,0-0.066,0-0.101
	c0-0.1,0-0.166,0-0.199c0-0.067,0-0.134,0-0.2s0-0.15,0-0.25c0-0.066,0-0.117,0-0.15c0-0.1,0-0.166,0-0.2c0.066,0,0.116,0,0.149,0
	c0-0.066,0-0.133,0-0.199c0-0.067,0-0.117,0-0.15c0-0.1,0-0.167,0-0.2c0-0.1,0-0.166,0-0.2c0-0.066,0-0.133,0-0.199
	c0-0.067,0-0.117,0-0.15c0-0.1,0-0.167,0-0.2c0-0.066,0-0.149,0-0.25c0-0.066,0-0.133,0-0.2c0-0.066,0-0.116,0-0.149
	c0-0.101,0-0.167,0-0.2s0-0.1,0-0.2c0-0.033,0-0.1,0-0.2c0-0.066,0-0.116,0-0.149c0.101,0,0.184,0,0.25,0c0-0.101,0-0.167,0-0.2
	s0-0.116,0-0.25c0-0.033,0-0.083,0-0.15c0-0.066,0-0.133,0-0.199c0-0.101,0-0.167,0-0.2s0-0.101,0-0.2c0-0.033,0-0.083,0-0.15
	c0-0.066,0-0.133,0-0.199c0-0.067,0-0.134,0-0.2c0-0.033,0-0.117,0-0.25c0-0.033,0-0.084,0-0.15s0-0.133,0-0.2
	c0-0.033,0-0.1,0-0.199c0.067,0,0.134,0,0.2,0c0-0.034,0-0.101,0-0.2c0-0.033,0-0.084,0-0.15s0-0.133,0-0.2c0-0.033,0-0.1,0-0.199
	c0.066,0,0.134,0,0.2,0c0-0.034,0-0.067,0-0.101c0-0.1,0-0.184,0-0.25c0.066,0,0.116,0,0.15,0c0-0.1,0-0.184,0-0.25
	c0.1,0,0.166,0,0.199,0c0-0.033,0-0.1,0-0.2c0-0.033,0-0.066,0-0.1c0.067,0,0.134,0,0.2,0c0-0.1,0-0.167,0-0.2
	c0.066,0,0.117,0,0.15,0c0-0.1,0-0.166,0-0.2c0.1,0,0.166,0,0.2,0c0-0.066,0-0.149,0-0.25c0.1,0,0.166,0,0.199,0
	c0.034,0,0.117,0,0.25,0c0-0.033,0-0.066,0-0.1c0.067,0,0.117,0,0.15,0c0.1,0,0.167,0,0.2,0c0-0.1,0-0.167,0-0.2
	c0.1,0,0.166,0,0.2,0c0.033,0,0.1,0,0.199,0c0-0.1,0-0.184,0-0.25C84.634,67.3,84.684,67.3,84.75,67.3z M70.2,2.7
	c0.033,0,0.05,0.05,0.05,0.15c0,0.033,0,0.066,0,0.1c0.033,0,0.083,0.033,0.15,0.1c0,0.034,0,0.067,0,0.1c0,0.1,0,0.184,0,0.25
	c0.1,0,0.149,0.017,0.149,0.05c0.066,0,0.101,0.05,0.101,0.15c0,0.033,0,0.066,0,0.1c0,0.133,0,0.216,0,0.25c0,0.066,0,0.133,0,0.2
	c0.033,0,0.1,0,0.199,0c0,0.067,0,0.15,0,0.25c0,0.033,0,0.067,0,0.1c0,0.1,0,0.167,0,0.2c0,0.066,0,0.133,0,0.2
	c0,0.067,0,0.133,0,0.2c0,0.066,0,0.117,0,0.15c-0.1,0-0.166,0-0.199,0c0,0.133,0,0.217,0,0.25c0,0.067,0,0.133,0,0.2
	c0,0.066,0,0.117,0,0.15c0,0.1,0,0.167,0,0.2c-0.067,0-0.15,0-0.25,0c0,0.1,0,0.167,0,0.2c0,0.067,0,0.133,0,0.2
	c-0.067,0-0.117,0-0.15,0c0,0.066,0,0.117,0,0.15c0,0.1-0.017,0.15-0.05,0.15c-0.066,0.033-0.117,0.05-0.15,0.05
	c0,0.034-0.017,0.083-0.05,0.15C69.934,6.983,69.884,7,69.85,7c0,0.067,0,0.15,0,0.25c-0.066,0-0.133,0-0.199,0
	c0,0.067,0,0.117,0,0.15c-0.067,0-0.117,0-0.15,0c0,0.1-0.017,0.15-0.05,0.15C69.384,7.583,69.333,7.6,69.3,7.6s-0.1,0-0.2,0
	c0,0.033,0,0.1,0,0.2c-0.033,0-0.1,0-0.199,0c0,0.034,0,0.1,0,0.2c-0.101,0-0.167,0-0.2,0c-0.101,0-0.167,0-0.2,0
	c0,0.033,0,0.083,0,0.15c-0.033,0-0.1,0-0.2,0c-0.033,0-0.083,0-0.149,0c0,0.1-0.017,0.15-0.051,0.15
	c-0.033,0.034-0.083,0.05-0.149,0.05c-0.101,0-0.167,0-0.2,0s-0.1,0-0.2,0c0,0.033,0,0.1,0,0.2c-0.033,0-0.083,0-0.149,0
	c-0.067,0-0.15,0-0.25,0c-0.067,0-0.134,0-0.2,0c0,0.034,0,0.1,0,0.2c-0.033,0-0.101,0-0.2,0c-0.033,0-0.083,0-0.15,0
	c0,0.067,0,0.133,0,0.2c-0.066,0-0.133,0-0.199,0c-0.034,0-0.101,0-0.2,0c-0.033,0-0.101,0-0.2,0c0,0.066,0,0.133,0,0.2
	c-0.033,0-0.083,0-0.15,0c-0.066,0-0.133,0-0.199,0c-0.034,0-0.117,0-0.25,0c0,0.033,0,0.083,0,0.15
	c-0.034,0.034-0.101,0.05-0.2,0.05c-0.033,0-0.066,0-0.101,0c-0.1,0-0.183,0-0.25,0c0,0.033,0,0.083,0,0.15c-0.033,0-0.1,0-0.199,0
	c-0.034,0-0.067,0-0.101,0c0,0.067-0.033,0.1-0.1,0.1c-0.033,0.066-0.066,0.1-0.101,0.1c-0.1,0-0.166,0-0.199,0
	c-0.067,0-0.167,0-0.301,0c0,0.033,0,0.1,0,0.2c-0.033,0-0.066,0-0.1,0c-0.1,0-0.167,0-0.2,0c-0.066,0-0.133,0-0.2,0
	c0,0.033,0,0.1,0,0.2c-0.066,0-0.133,0-0.199,0c-0.067,0-0.117,0-0.15,0c-0.1,0-0.167,0-0.2,0c0,0.033,0,0.083,0,0.15
	c-0.066,0-0.133,0-0.2,0c-0.066,0-0.133,0-0.199,0v0.15c-0.067,0.067-0.134,0.1-0.2,0.1c-0.101,0-0.167,0-0.2,0s-0.1,0-0.2,0
	c0,0.033,0,0.067,0,0.1c-0.066,0.066-0.116,0.1-0.149,0.1c-0.101,0-0.167,0-0.2,0c-0.101,0-0.167,0-0.2,0c0,0.033,0,0.1,0,0.2
	c-0.033,0-0.1,0-0.2,0c0,0.033,0,0.067,0,0.1c-0.033,0-0.083,0-0.149,0c-0.101,0-0.167,0-0.2,0c0,0.1,0,0.183,0,0.25
	c-0.033,0-0.117,0-0.25,0c-0.033,0-0.101,0-0.2,0c-0.033,0-0.083,0-0.15,0c0,0.033,0,0.1,0,0.2c-0.066,0-0.133,0-0.199,0
	c-0.034,0-0.101,0-0.2,0c-0.033,0-0.101,0-0.2,0c0,0.033,0,0.066,0,0.1c-0.033,0-0.083,0-0.15,0c-0.066,0-0.133,0-0.199,0
	c0,0.1-0.017,0.167-0.051,0.2H58.95c-0.066,0-0.134,0-0.2,0s-0.134,0-0.2,0c0,0.1-0.017,0.15-0.05,0.15
	c-0.033,0.067-0.083,0.1-0.15,0.1c-0.033,0-0.1,0-0.199,0c-0.034,0-0.067,0-0.101,0c0,0.067,0,0.15,0,0.25c-0.1,0-0.184,0-0.25,0
	s-0.133,0-0.2,0c0,0.033-0.017,0.067-0.05,0.1H57.4c-0.034,0-0.067,0-0.101,0c-0.133,0-0.217,0-0.25,0c0,0.1,0,0.167,0,0.2
	c-0.066,0-0.149,0-0.25,0c-0.033,0-0.1,0-0.2,0c-0.033,0-0.066,0-0.1,0c0,0.1-0.033,0.15-0.1,0.15
	c-0.034,0.033-0.067,0.05-0.101,0.05c-0.066,0-0.133,0-0.2,0c-0.066,0-0.116,0-0.149,0c0,0.067,0,0.133,0,0.2
	c-0.101,0-0.167,0-0.2,0c-0.134,0-0.217,0-0.25,0c0,0.066-0.033,0.117-0.1,0.15H55.3c-0.066,0-0.116,0-0.149,0
	c-0.101,0-0.167,0-0.2,0c0,0.1-0.033,0.15-0.101,0.15c-0.033,0.033-0.066,0.05-0.1,0.05c-0.066,0-0.134,0-0.2,0s-0.116,0-0.149,0
	c0,0.067,0,0.133,0,0.2c-0.101,0-0.167,0-0.2,0s-0.101,0-0.2,0s-0.184,0-0.25,0c0,0.1,0,0.183,0,0.25c-0.066,0-0.116,0-0.15,0
	c-0.1,0-0.166,0-0.199,0c-0.034,0-0.101,0-0.2,0c0,0.067,0,0.117,0,0.15c-0.033,0-0.084,0-0.15,0c0,0.1,0,0.167,0,0.2
	c-0.1,0-0.166,0-0.2,0c-0.1,0-0.166,0-0.199,0c0,0.066,0,0.133,0,0.2c-0.034,0-0.101,0-0.2,0c-0.033,0-0.101,0-0.2,0
	c-0.066,0-0.134,0-0.2,0c0,0.067,0,0.117,0,0.15c-0.1,0-0.166,0-0.2,0c-0.033,0-0.1,0-0.199,0c0,0.1,0,0.167,0,0.2
	c-0.034,0-0.084,0-0.15,0s-0.134,0-0.2,0c-0.033,0-0.1,0-0.2,0c0,0.1,0,0.167,0,0.2c-0.033,0-0.1,0-0.199,0c-0.034,0-0.084,0-0.15,0
	c-0.1,0-0.184,0-0.25,0c0,0.033,0,0.1,0,0.2c-0.033,0-0.1,0-0.2,0c-0.033,0-0.066,0-0.1,0c-0.101,0-0.167,0-0.2,0
	c0,0.067,0,0.133,0,0.2c-0.1,0-0.183,0-0.25,0c-0.033,0-0.1,0-0.2,0v0.15c-0.033,0.033-0.066,0.05-0.1,0.05c-0.1,0-0.167,0-0.2,0
	c-0.1,0-0.167,0-0.2,0c0,0.1,0,0.167,0,0.2c-0.1,0-0.2,0-0.3,0c-0.033,0-0.067,0-0.1,0c-0.1,0-0.167,0-0.2,0c0,0.033,0,0.1,0,0.2
	c-0.067,0-0.133,0-0.2,0s-0.133,0-0.2,0c0,0.033,0,0.083,0,0.15c-0.066,0-0.117,0-0.15,0c-0.1,0-0.167,0-0.2,0
	c-0.067,0-0.133,0-0.2,0c0,0.1,0,0.167,0,0.2c-0.067,0-0.15,0-0.25,0c-0.067,0-0.117,0-0.15,0c-0.1,0-0.167,0-0.2,0
	c0,0.033-0.033,0.083-0.1,0.15c0,0.033-0.033,0.05-0.1,0.05c-0.067,0-0.117,0-0.15,0c-0.1,0-0.167,0-0.2,0c0,0.033,0,0.1,0,0.2
	c-0.1,0-0.167,0-0.2,0s-0.1,0-0.2,0c0,0.033,0,0.083,0,0.15c-0.067,0-0.117,0-0.15,0c-0.133,0-0.216,0-0.25,0c-0.033,0-0.1,0-0.2,0
	c0,0.1,0,0.183,0,0.25c-0.033,0-0.1,0-0.2,0c-0.033,0-0.083,0-0.15,0c0,0.033,0,0.1,0,0.2c-0.1,0-0.167,0-0.2,0
	c-0.033,0-0.1,0-0.2,0c0,0.033,0,0.1,0,0.2c-0.033,0-0.1,0-0.2,0c-0.033,0-0.083,0-0.15,0c0,0.033-0.017,0.083-0.05,0.15
	c-0.034,0-0.1,0-0.2,0c-0.033,0-0.1,0-0.2,0c-0.033,0-0.083,0-0.15,0c0,0.067,0,0.133,0,0.2c-0.066,0-0.133,0-0.2,0
	c-0.067,0-0.133,0-0.2,0c-0.033,0-0.1,0-0.2,0c0,0.033,0,0.1,0,0.2c-0.033,0-0.083,0-0.15,0c-0.066,0-0.133,0-0.2,0
	c0,0.033-0.017,0.083-0.05,0.15H42.5c-0.033,0-0.117,0-0.25,0c-0.033,0-0.067,0-0.1,0c0,0.066,0,0.133,0,0.2c-0.1,0-0.183,0-0.25,0
	c-0.033,0-0.1,0-0.2,0c-0.034,0-0.1,0-0.2,0c0,0.067,0,0.15,0,0.25c-0.033,0-0.067,0-0.1,0c-0.1,0-0.167,0-0.2,0
	c-0.067,0-0.15,0-0.25,0c0,0.034,0,0.1,0,0.2c-0.034,0-0.067,0-0.1,0c-0.133,0-0.217,0-0.25,0c0,0.033-0.033,0.067-0.1,0.1
	c-0.033,0-0.067,0-0.1,0c-0.066,0-0.133,0-0.2,0c-0.067,0-0.117,0-0.15,0c0,0.1-0.033,0.15-0.1,0.15c-0.034,0.067-0.067,0.1-0.1,0.1
	c-0.1,0-0.167,0-0.2,0c-0.066,0-0.133,0-0.2,0c0,0.033,0,0.1,0,0.2c-0.067,0-0.117,0-0.15,0c-0.1,0-0.183,0-0.25,0
	c0,0.034-0.033,0.067-0.1,0.1c0,0.067-0.034,0.1-0.1,0.1c-0.067,0-0.133,0-0.2,0c-0.066,0-0.117,0-0.15,0c-0.1,0-0.167,0-0.2,0
	c0,0.033,0,0.067,0,0.1c-0.033,0-0.1,0-0.2,0c-0.067,0-0.117,0-0.15,0c0,0.1-0.017,0.15-0.05,0.15
	c-0.066,0.033-0.117,0.05-0.15,0.05c-0.1,0-0.167,0-0.2,0c-0.033,0-0.117,0-0.25,0c0,0.067,0,0.15,0,0.25c-0.033,0-0.083,0-0.15,0
	c0,0.067,0,0.15,0,0.25c-0.066,0-0.133,0-0.2,0c-0.1,0-0.167,0-0.2,0c0,0.034,0,0.067,0,0.1c0,15.267,0,30.534,0,45.8
	c0,1.8,0,3.633,0,5.5c0,0.033,0,0.1,0,0.2c0,0.066,0,0.133,0,0.199c0,0.067,0,0.117,0,0.15c0,0.134,0,0.217,0,0.25s0,0.1,0,0.2
	c0,0.033,0,0.083,0,0.149c0,0.101,0,0.167,0,0.2c0,0.101,0,0.167,0,0.2c0.033,0,0.1,0,0.2,0c0,0.033,0,0.1,0,0.2
	c0,0.033,0,0.083,0,0.149c0,0.067,0,0.134,0,0.2c0,0.101,0,0.184,0,0.25c0.066,0,0.133,0,0.2,0c0,0.033,0,0.101,0,0.2
	c0,0.033,0,0.083,0,0.15c0,0.066,0,0.133,0,0.199c0.067,0,0.117,0,0.15,0c0,0.034,0,0.101,0,0.2c0,0.033,0,0.101,0,0.2h0.2
	c0.033,0.033,0.05,0.083,0.05,0.15c0,0.066,0,0.133,0,0.199c0.034,0,0.083,0.017,0.15,0.051c0.033,0,0.05,0.05,0.05,0.149
	c0,0.033,0,0.084,0,0.15c0.033,0,0.1,0,0.2,0c0,0.1,0,0.184,0,0.25c0.033,0,0.083,0.017,0.15,0.05c0,0.033,0,0.083,0,0.15
	c0.1,0,0.167,0,0.2,0c0,0.033,0,0.1,0,0.199c0,0.034,0,0.067,0,0.101c0.034,0,0.1,0,0.2,0c0.033,0,0.083,0.033,0.15,0.1
	c0,0.033,0,0.066,0,0.101c0.067,0,0.133,0.033,0.2,0.1c0,0.033,0,0.083,0,0.15c0.066,0,0.1,0.017,0.1,0.05
	c0.066,0,0.1,0.05,0.1,0.149c0.067,0,0.133,0,0.2,0c0.033,0.034,0.05,0.067,0.05,0.101c0.034,0,0.083,0.05,0.15,0.149
	c0,0.034,0,0.067,0,0.101c0.066,0,0.133,0,0.2,0c0,0.066,0,0.133,0,0.2c0.033,0,0.1,0,0.2,0c0,0.066,0,0.149,0,0.25
	c0.033,0,0.1,0,0.2,0c0,0.033,0,0.066,0,0.1c0.034,0,0.083,0,0.15,0c0.066,0,0.1,0.033,0.1,0.1c0.067,0.034,0.1,0.067,0.1,0.101
	c0.033,0,0.067,0.033,0.1,0.1c0.067,0,0.1,0.033,0.1,0.101c0.033,0,0.117,0,0.25,0c0.033,0,0.066,0,0.1,0c0,0.066,0,0.133,0,0.199
	c0.1,0,0.183,0,0.25,0c0.033,0,0.1,0,0.2,0c0.033,0,0.067,0,0.1,0c0,0.067,0,0.117,0,0.15c0.1,0,0.167,0,0.2,0c0.1,0,0.167,0,0.2,0
	c0.067,0,0.15,0,0.25,0c0,0.134,0,0.217,0,0.25c0.033,0,0.067,0,0.1,0c0.133,0,0.217,0,0.25,0c0.1,0,0.167,0,0.2,0
	c0.066,0,0.133,0,0.2,0c0,0.066,0,0.134,0,0.2c0.067,0,0.117,0,0.15,0c0.1,0,0.167,0,0.2,0c0.067,0,0.133,0,0.2,0
	c0.066,0,0.133,0,0.2,0c0.067,0,0.117,0,0.15,0c0.1,0,0.167,0,0.2,0c3.633,0,7.217,0,10.75,0c0.033,0,0.1,0,0.2,0
	c0.033,0,0.1,0,0.2,0c0.033,0,0.083,0,0.149,0s0.134,0,0.2,0c0.033,0,0.116,0,0.25,0c0.033,0,0.066,0,0.1,0
	c0.067,0.066,0.101,0.116,0.101,0.149c0.033,0,0.083,0,0.149,0c0.067,0,0.134,0,0.2,0c0.033,0,0.066,0.017,0.101,0.051
	c0.066,0.066,0.1,0.116,0.1,0.149c0.033,0,0.066,0,0.1,0c0.101,0,0.167,0,0.2,0c0,0.101,0,0.167,0,0.2c0.101,0,0.184,0,0.25,0
	c0.033,0,0.117,0,0.25,0c0,0.066,0,0.134,0,0.2c0.033,0,0.066,0,0.101,0c0,0.066,0,0.116,0,0.149c0.1,0,0.166,0,0.199,0
	c0,0.101,0,0.167,0,0.2c0.067,0,0.134,0,0.2,0c0,0.033,0,0.101,0,0.2c0.066,0,0.15,0,0.25,0c0,0.066,0,0.15,0,0.25
	c0,0.066,0,0.116,0,0.15c0.033,0,0.066,0,0.101,0c0,0.1,0,0.166,0,0.199c0,0.034,0,0.101,0,0.2c0.1,0,0.166,0,0.199,0
	c0,0.033,0,0.101,0,0.2c0,0.033,0,0.083,0,0.15c0,0.1,0,0.166,0,0.199c0.067,0,0.134,0,0.2,0c0,0.034,0,0.101,0,0.2
	c0,0.033,0,0.101,0,0.2c0,0.066,0,0.134,0,0.2s0,0.133,0,0.2c0,0.033,0,0.1,0,0.199c0,0.034,0,0.084,0,0.15s0,0.134,0,0.2
	c0,0.033,0,0.1,0,0.2c0,0.033-0.017,0.066-0.05,0.1c-0.033,0.066-0.083,0.1-0.15,0.1c0,0.034,0,0.084,0,0.15c0,0.1,0,0.184,0,0.25
	c0,0.033-0.017,0.066-0.05,0.1c0,0.067-0.05,0.101-0.149,0.101c0,0.033,0,0.1,0,0.2c0,0.033,0,0.066,0,0.1c-0.034,0-0.067,0-0.101,0
	c0,0.1,0,0.184,0,0.25c-0.1,0-0.184,0-0.25,0c0,0.033,0,0.1,0,0.2c0,0.033-0.017,0.066-0.05,0.1c-0.033,0-0.083,0-0.15,0
	c0,0.101-0.017,0.167-0.05,0.2H57.4v0.15c-0.034,0.066-0.067,0.1-0.101,0.1c-0.133,0-0.217,0-0.25,0c0,0.066,0,0.15,0,0.25
	c-0.066,0-0.149,0-0.25,0c-0.033,0-0.1,0-0.2,0c0,0.033,0,0.066,0,0.1c-0.033,0-0.066,0-0.1,0c-0.1,0-0.167,0-0.2,0
	c0,0.101-0.033,0.15-0.1,0.15c0,0.033-0.033,0.05-0.101,0.05c-0.066,0-0.116,0-0.149,0c-0.101,0-0.167,0-0.2,0
	c-0.134,0-0.217,0-0.25,0c-0.066,0-0.134,0-0.2,0s-0.116,0-0.149,0c-0.101,0-0.167,0-0.2,0c-3.634,0-7.284,0-10.95,0
	c-0.033,0-0.1,0-0.2,0c-0.033,0-0.083,0-0.15,0c-0.066,0-0.133,0-0.2,0c-0.067,0-0.133,0-0.2,0c-0.033,0-0.1,0-0.2,0
	c-0.033,0-0.083,0-0.15,0c-0.066,0-0.133,0-0.2,0c-0.034,0-0.1,0-0.2,0c-0.033,0-0.117,0-0.25,0c-0.033,0-0.067,0-0.1,0
	c-0.1,0-0.183,0-0.25,0c0-0.033,0-0.1,0-0.2c-0.033,0-0.1,0-0.2,0c-0.034,0-0.1,0-0.2,0c-0.033,0-0.067,0-0.1,0
	c-0.1,0-0.167,0-0.2,0c-0.067,0-0.15,0-0.25,0c0-0.033,0-0.066,0-0.1c-0.034,0-0.067,0-0.1,0c-0.133,0-0.217,0-0.25,0
	c-0.1,0-0.167,0-0.2,0c-0.066,0-0.133,0-0.2,0c0-0.1,0-0.184,0-0.25c-0.067,0-0.117,0-0.15,0c-0.1,0-0.167,0-0.2,0
	c-0.1,0-0.167,0-0.2,0c-0.066,0-0.117-0.033-0.15-0.1c-0.033,0-0.05-0.051-0.05-0.15c-0.067,0-0.117,0-0.15,0c-0.1,0-0.183,0-0.25,0
	c-0.066,0-0.117,0-0.15,0c-0.033-0.033-0.05-0.1-0.05-0.2c-0.067,0-0.133,0-0.2,0c-0.066,0-0.117,0-0.15,0c0-0.033,0-0.066,0-0.1
	c-0.1,0-0.167,0-0.2,0c-0.033,0-0.1,0-0.2,0c0-0.101,0-0.167,0-0.2c-0.067,0-0.117,0-0.15,0c-0.1,0-0.167,0-0.2,0
	c0-0.066,0-0.15,0-0.25c-0.1,0-0.167,0-0.2,0c-0.033,0-0.117,0-0.25,0c0-0.033,0-0.066,0-0.1c-0.033,0-0.083,0-0.15,0
	c0-0.101,0-0.167,0-0.2c-0.066,0-0.133,0-0.2,0c-0.1,0-0.15-0.033-0.15-0.101c-0.033-0.033-0.05-0.066-0.05-0.1
	c-0.033,0-0.1,0-0.2,0c-0.033,0-0.083-0.033-0.15-0.1v-0.15c-0.066,0-0.133,0-0.2,0c0-0.066,0-0.116,0-0.15c-0.034,0-0.1,0-0.2,0
	c-0.033,0-0.083-0.033-0.15-0.1c-0.067-0.033-0.1-0.066-0.1-0.1c-0.033,0-0.083-0.034-0.15-0.101c0-0.033,0-0.066,0-0.1
	c-0.067,0-0.133,0-0.2,0c0-0.066,0-0.134,0-0.2c-0.033,0-0.1,0-0.2,0c-0.034,0-0.067,0-0.1,0c0-0.066,0-0.116,0-0.15
	c-0.1,0-0.184,0-0.25,0c0-0.1,0-0.166,0-0.199c-0.067,0-0.133,0-0.2,0c0-0.067,0-0.134,0-0.2c-0.033,0-0.1,0-0.2,0
	c-0.034,0-0.067,0-0.1,0c0-0.066,0-0.134,0-0.2H34.2c-0.067-0.1-0.1-0.167-0.1-0.2c-0.1,0-0.15-0.017-0.15-0.05
	c-0.067-0.066-0.1-0.116-0.1-0.15c-0.033,0-0.067-0.017-0.1-0.05c-0.067,0-0.1-0.05-0.1-0.149c0-0.067,0-0.117,0-0.15
	c-0.033,0-0.066,0-0.1,0c0-0.1,0-0.167,0-0.2c-0.1,0-0.167,0-0.2,0c0-0.1,0-0.166,0-0.2c-0.067,0-0.117-0.017-0.15-0.05
	c-0.034,0-0.05-0.05-0.05-0.149c-0.066,0-0.117,0-0.15,0c-0.067-0.034-0.1-0.084-0.1-0.15c0-0.1,0-0.184,0-0.25
	c-0.033,0-0.066,0-0.1,0c0-0.1,0-0.167,0-0.2c-0.1,0-0.15-0.017-0.15-0.05c-0.033,0-0.05-0.05-0.05-0.15c-0.1,0-0.167,0-0.2,0
	c-0.033-0.033-0.05-0.083-0.05-0.149s0-0.134,0-0.2c-0.067,0-0.133,0-0.2,0c0-0.033,0-0.1,0-0.2c-0.066,0-0.117-0.017-0.15-0.05
	v-0.15c0-0.033,0-0.083,0-0.149c-0.1,0-0.167,0-0.2,0c0-0.066,0-0.134,0-0.2c-0.066,0-0.133,0-0.2,0c0-0.033,0-0.116,0-0.25
	c0-0.033,0-0.083,0-0.15c-0.067,0-0.117,0-0.15,0c0-0.066,0-0.133,0-0.199c0-0.067,0-0.134,0-0.2c-0.1,0-0.167,0-0.2,0
	c0-0.033,0-0.101,0-0.2c0-0.033,0-0.066,0-0.1c-0.1,0-0.167,0-0.2,0c0-0.101,0-0.184,0-0.25c0-0.067,0-0.134,0-0.2
	c-0.066,0-0.15,0-0.25,0c0-0.033,0-0.117,0-0.25c0-0.033,0-0.066,0-0.101c-0.066,0-0.117-0.033-0.15-0.1c0-0.033,0-0.066,0-0.1
	c0-0.067,0-0.15,0-0.25c0-0.034,0-0.101,0-0.2c-0.1,0-0.167,0-0.2,0c0-0.033,0-0.066,0-0.101c0-0.1,0-0.166,0-0.199
	c0-0.067,0-0.134,0-0.2c-0.034,0-0.1,0-0.2,0c0-0.066,0-0.15,0-0.25c0-0.066,0-0.117,0-0.15c0-0.1,0-0.166,0-0.2
	c0-0.066,0-0.133,0-0.199c-0.033,0-0.1,0-0.2,0c0-0.067,0-0.117,0-0.15c0-0.1,0-0.167,0-0.2c0-0.1,0-0.166,0-0.2
	c0-0.066,0-0.133,0-0.199c0-0.067,0-0.117,0-0.15c-0.066,0-0.117,0-0.15,0c0-0.1,0-0.167,0-0.2c0-0.066,0-0.149,0-0.25
	c0-0.066,0-0.133,0-0.2c0-0.066,0-0.116,0-0.149c0-0.101,0-0.167,0-0.2s0-0.1,0-0.2c0-0.033,0-0.1,0-0.2c0-0.066,0-0.116,0-0.149
	c0-0.101,0-0.167,0-0.2s0-0.116,0-0.25c-0.1,0-0.167,0-0.2,0c0-0.033,0-0.083,0-0.15c0-0.066,0-0.133,0-0.199c0-0.101,0-0.167,0-0.2
	c0-1.033,0-2.066,0-3.101c0-15.199,0-30.433,0-45.7c-0.034,0-0.1,0-0.2,0c-0.033,0-0.1,0-0.2,0c0,0.067,0,0.133,0,0.2
	c-0.033,0-0.1,0-0.2,0c0,0.066,0,0.117,0,0.15c-0.1,0-0.167,0-0.2,0s-0.1,0-0.2,0c0,0.133,0,0.217,0,0.25c-0.034,0-0.083,0-0.15,0
	c-0.066,0-0.133,0-0.2,0c-0.067,0-0.133,0-0.2,0c0,0.033,0,0.1,0,0.2c-0.033,0-0.1,0-0.2,0c-0.034,0-0.083,0-0.15,0
	c0,0.033-0.017,0.083-0.05,0.15c-0.033,0-0.083,0-0.15,0c-0.067,0-0.15,0-0.25,0c-0.033,0-0.1,0-0.2,0c0,0.1,0,0.167,0,0.2
	c-0.033,0-0.083,0-0.15,0s-0.133,0-0.2,0c-0.033,0-0.1,0-0.2,0c0,0.1,0,0.167,0,0.2c-0.033,0-0.1,0-0.2,0c-0.033,0-0.066,0-0.1,0
	c-0.1,0-0.183,0-0.25,0c0,0.033,0,0.1,0,0.2c-0.033,0-0.117,0-0.25,0c-0.033,0-0.066,0-0.1,0c0,0.033-0.034,0.083-0.1,0.15
	c-0.033,0-0.067,0-0.1,0c-0.1,0-0.167,0-0.2,0c-0.066,0-0.15,0-0.25,0v0.1c-0.033,0.066-0.066,0.1-0.1,0.1c-0.1,0-0.167,0-0.2,0
	c-0.067,0-0.133,0-0.2,0c0,0.1,0,0.184,0,0.25c-0.066,0-0.133,0-0.2,0c-0.067,0-0.133,0-0.2,0c0,0.034-0.017,0.083-0.05,0.15
	c-0.067,0.033-0.117,0.05-0.15,0.05c-0.067,0-0.133,0-0.2,0s-0.133,0-0.2,0c0,0.033,0,0.083,0,0.15c-0.066,0-0.117,0-0.15,0
	c-0.1,0-0.167,0-0.2,0c-0.034,0-0.1,0-0.2,0c0,0.067,0,0.133,0,0.2c-0.067,0-0.117,0-0.15,0c-0.1,0-0.167,0-0.2,0
	c-0.133,0-0.217,0-0.25,0c0,0.033-0.017,0.066-0.05,0.1c0,0.066-0.05,0.1-0.15,0.1c-0.034,0-0.083,0-0.15,0
	c0,0.034-0.017,0.083-0.05,0.15C21.933,25.983,21.883,26,21.85,26c-0.1,0-0.167,0-0.2,0s-0.1,0-0.2,0c0,0.033,0,0.083,0,0.15
	c-0.034,0-0.083,0-0.15,0c-0.066,0-0.133,0-0.2,0c0,0.067,0,0.133,0,0.2c-0.033,0-0.117,0-0.25,0c-0.033,0-0.1,0-0.2,0
	c0,0.033,0,0.1,0,0.2c-0.033,0-0.083,0-0.15,0s-0.133,0-0.2,0c-0.033,0-0.1,0-0.2,0c0,0.034,0,0.083,0,0.15c-0.033,0-0.083,0-0.15,0
	c-0.067,0-0.133,0-0.2,0c0,0.1-0.017,0.183-0.05,0.25c-0.034,0-0.083,0-0.15,0c-0.033,0-0.1,0-0.2,0c-0.033,0-0.083,0-0.15,0
	c0,0.066,0,0.133,0,0.2c-0.1,0-0.184,0-0.25,0c-0.067,0-0.133,0-0.2,0c0,0.033-0.017,0.067-0.05,0.1c0,0.067-0.05,0.1-0.15,0.1
	c-0.033,0-0.066,0-0.1,0c-0.1,0-0.167,0-0.2,0c0,0.033-0.033,0.066-0.1,0.1H18c-0.033,0-0.1,0-0.2,0c-0.033,0-0.066,0-0.1,0
	c0,0.1,0,0.167,0,0.2c-0.133,0-0.217,0-0.25,0c-0.067,0-0.133,0-0.2,0s-0.117,0-0.15,0c0,0.1,0,0.184,0,0.25c-0.1,0-0.167,0-0.2,0
	c-0.1,0-0.167,0-0.2,0c-0.067,0-0.133,0-0.2,0c0,0.033,0,0.1,0,0.2c-0.067,0-0.117,0-0.15,0c-0.1,0-0.167,0-0.2,0
	c-0.1,0-0.183,0-0.25,0c0,0.033,0,0.066,0,0.1c-0.066,0-0.133,0-0.2,0c-0.067,0-0.117,0-0.15,0c-0.1,0-0.167,0-0.2,0s-0.1,0-0.2,0
	c-0.066,0-0.133,0-0.2,0c-0.067,0-0.117,0-0.15,0c-0.1,0-0.167,0-0.2,0s-0.1,0-0.2,0c-0.033,0-0.117,0-0.25,0c0-0.034,0-0.067,0-0.1
	c-0.066,0-0.117,0-0.15,0c-0.1,0-0.167,0-0.2,0c-0.033,0-0.083-0.033-0.15-0.1c-0.033-0.033-0.05-0.067-0.05-0.1
	c-0.033,0-0.083,0-0.15,0c-0.067,0-0.133,0-0.2,0c0-0.066,0-0.15,0-0.25c-0.1,0-0.167,0-0.2,0c-0.033,0-0.083-0.017-0.15-0.05
	c-0.033,0-0.05-0.05-0.05-0.15c-0.033,0-0.083,0-0.15,0c0-0.034,0-0.067,0-0.1c-0.1,0-0.184,0-0.25,0c0-0.1,0-0.167,0-0.2
	c-0.034,0-0.1,0-0.2,0c0-0.066,0-0.133,0-0.2c-0.033,0-0.083,0-0.15,0c-0.033-0.067-0.05-0.15-0.05-0.25c0-0.067,0-0.117,0-0.15
	c-0.033,0-0.083,0-0.15,0c0-0.1,0-0.167,0-0.2c0-0.067,0-0.133,0-0.2c0-0.066,0-0.117,0-0.15c-0.066,0-0.133,0-0.2,0
	c0-0.1,0-0.167,0-0.2c0-0.1,0-0.167,0-0.2c0-0.067,0-0.133,0-0.2c0-0.066,0-0.117,0-0.15c-0.034,0-0.1,0-0.2,0c0-0.1,0-0.167,0-0.2
	c0-0.066,0-0.15,0-0.25c0-0.066,0-0.133,0-0.2c0-0.067,0-0.117,0-0.15c0.1,0,0.167,0,0.2,0c0-0.1,0-0.167,0-0.2s0-0.1,0-0.2
	c0-0.033,0-0.1,0-0.2c0-0.067,0-0.117,0-0.15c0.066,0,0.133,0,0.2,0c0-0.1,0-0.167,0-0.2s0-0.117,0-0.25c0.067,0,0.117,0,0.15,0
	c0-0.033,0-0.083,0-0.15c0-0.067,0-0.133,0-0.2c0.1,0,0.167,0,0.2,0c0-0.1,0-0.167,0-0.2c0-0.034,0-0.1,0-0.2c0.1,0,0.167,0,0.2,0
	c0-0.033,0-0.083,0-0.15c0.066,0,0.15,0,0.25,0c0-0.067,0-0.133,0-0.2c0.066,0,0.117,0,0.15,0c0-0.066,0-0.133,0-0.2
	c0.1,0,0.167,0,0.2,0c0.034,0,0.1,0,0.2,0c0-0.034,0-0.117,0-0.25c0.067,0,0.133,0,0.2,0c0.066,0,0.117,0,0.15,0
	c0-0.034,0-0.083,0-0.15c0.1,0,0.167,0,0.2,0c0.034,0,0.1,0,0.2,0c0-0.066,0-0.133,0-0.2c0.033,0,0.083,0,0.15,0
	c0.133,0,0.217,0,0.25,0c0.1,0,0.167,0,0.2,0c0-0.033,0-0.1,0-0.2c0.033,0,0.1,0,0.2,0c0.034,0,0.083,0,0.15,0
	c0.066,0,0.133,0,0.2,0c0-0.033,0-0.1,0-0.2c0.1,0,0.167,0,0.2,0s0.1,0,0.2,0c0-0.034,0-0.083,0-0.15c0.034,0,0.083,0,0.15,0
	c0.066,0,0.133,0,0.2,0c0.067,0,0.15,0,0.25,0c0-0.066,0-0.133,0-0.2c0.033,0,0.1,0,0.2,0c0.033,0,0.083,0,0.15,0s0.133,0,0.2,0
	c0-0.033,0-0.1,0-0.2c0.033,0,0.1,0,0.2,0c0.033,0,0.1,0,0.2,0c0.033,0,0.083,0,0.15,0c0-0.033,0-0.066,0-0.1c0.067,0,0.133,0,0.2,0
	c0.033,0,0.117,0,0.25,0c0-0.1,0-0.183,0-0.25c0.033,0,0.066,0,0.1,0c0.1,0,0.167,0,0.2,0c0.1,0,0.183,0,0.25,0
	c0-0.1,0-0.183,0-0.25c0.033,0,0.1,0,0.2,0c0.033,0,0.066,0,0.1,0c0.1,0,0.167,0,0.2,0c0-0.033,0-0.1,0-0.2c0.067,0,0.133,0,0.2,0
	c0-0.033,0-0.067,0-0.1c0.066,0,0.15,0,0.25,0c0.066,0,0.117,0,0.15,0c0.1,0,0.167,0,0.2,0c0-0.1,0-0.167,0-0.2
	c0.067,0,0.133,0,0.2,0s0.133,0,0.2,0c0-0.1,0-0.167,0-0.2c0.066,0,0.117,0,0.15,0c0.1,0,0.167,0,0.2,0c0.067,0,0.133,0,0.2,0
	c0-0.067,0-0.15,0-0.25c0.067,0,0.117,0,0.15,0c0.1,0,0.167,0,0.2,0c0-0.033,0-0.067,0-0.1c0.133,0,0.217,0,0.25,0
	c0.066,0,0.133,0,0.2,0c0.067,0,0.117,0,0.15,0c0-0.1,0-0.167,0-0.2c0.1,0,0.167,0,0.2,0s0.1,0,0.2,0c0.033,0,0.1,0,0.2,0
	c0-0.1,0-0.183,0-0.25c0.067,0,0.117,0,0.15,0c0.1,0,0.167,0,0.2,0s0.117,0,0.25,0c0-0.066,0-0.133,0-0.2c0.033,0,0.1,0,0.2,0
	c0.033,0,0.083,0,0.15,0c0-0.067,0-0.117,0-0.15c0.1,0,0.167,0,0.2,0c0.033,0,0.1,0,0.2,0c0.033,0,0.083,0,0.15,0
	c0-0.1,0-0.167,0-0.2c0.067,0,0.133,0,0.2,0s0.133,0,0.2,0c0.033,0,0.1,0,0.2,0c0-0.067,0-0.133,0-0.2c0.067,0,0.133,0,0.2,0
	c0.066,0,0.133,0,0.2,0c0-0.066,0-0.117,0-0.15c0.067,0,0.133,0,0.2,0c0.033,0,0.1,0,0.2,0c0.033,0,0.066,0,0.1,0
	c0-0.1,0-0.167,0-0.2c0.1,0,0.184,0,0.25,0c0.034,0,0.1,0,0.2,0c0.033,0,0.1,0,0.2,0c0-0.1,0-0.167,0-0.2c0.033,0,0.066,0,0.1,0
	c0.133,0,0.217,0,0.25,0c0.067,0,0.15,0,0.25,0c0-0.067,0-0.15,0-0.25c0.034,0,0.067,0,0.1,0c0.1,0,0.167,0,0.2,0
	c0.1,0,0.167,0,0.2,0c0-0.067,0-0.117,0-0.15c0.067,0,0.133,0,0.2,0c0-0.1,0-0.167,0-0.2c0.067,0,0.117,0,0.15,0
	c0.1,0,0.167,0,0.2,0c0-0.1,0-0.167,0-0.2c0.1,0,0.183,0,0.25,0c0.066,0,0.133,0,0.2,0c0.067,0,0.117,0,0.15,0c0-0.034,0-0.1,0-0.2
	c0.1,0,0.167,0,0.2,0c0.067,0,0.133,0,0.2,0c0.066,0,0.133,0,0.2,0c0-0.067,0-0.117,0-0.15c0.067,0,0.117,0,0.15,0
	c0.1,0,0.167,0,0.2,0c0-0.1,0-0.167,0-0.2c0.033,0,0.1,0,0.2,0s0.167,0,0.2,0c0.1,0,0.167,0,0.2,0c0-0.033,0-0.1,0-0.2
	c0.1,0,0.167,0,0.2,0c0.033,0,0.1,0,0.2,0c0.033,0,0.083,0,0.15,0c0-0.034,0-0.1,0-0.2c0.1,0,0.167,0,0.2,0c0.1,0,0.167,0,0.2,0
	c0-0.067,0-0.133,0-0.2c0.033,0,0.1,0,0.2,0c0.033,0,0.083,0,0.15,0c0.1,0,0.184,0,0.25,0c0-0.1,0-0.167,0-0.2c0.034,0,0.1,0,0.2,0
	c0.033,0,0.1,0,0.2,0c0.033,0,0.083,0,0.15,0c0-0.033,0-0.1,0-0.2c0.066,0,0.133,0,0.2,0c0.034,0,0.1,0,0.2,0
	c0.033,0,0.083,0,0.15,0c0-0.033,0-0.1,0-0.2c0.067,0,0.133,0,0.2,0c0.066,0,0.15,0,0.25,0c0-0.034,0-0.083,0-0.15
	c0.033,0,0.1,0,0.2,0c0.034,0,0.067,0,0.1,0c0.1,0,0.184,0,0.25,0c0-0.066,0-0.133,0-0.2c0.067,0,0.133,0,0.2,0c0.033,0,0.1,0,0.2,0
	c0.034,0,0.067,0,0.1,0c0-0.033,0-0.1,0-0.2c0.1,0,0.167,0,0.2,0c0.066,0,0.15,0,0.25,0c0-0.033,0-0.083,0-0.15
	c0.066,0,0.15,0,0.25,0c0.033,0,0.066,0,0.1,0c0.1,0,0.167,0,0.2,0c0.067,0,0.133,0,0.2,0c0-0.067,0-0.15,0-0.25
	c0.066,0,0.15,0,0.25,0c0-0.067,0-0.133,0-0.2c0.033,0,0.066,0,0.1,0c0.1,0,0.167,0,0.2,0c0-0.033,0-0.1,0-0.2
	c0.067,0,0.133,0,0.2,0c0.066,0,0.117,0,0.15,0c0.133,0,0.217,0,0.25,0c0-0.033,0-0.083,0-0.15c0.1,0,0.167,0,0.2,0
	c0.066,0,0.133,0,0.2,0c0-0.067,0-0.133,0-0.2c0.067,0,0.117,0,0.15,0c0.1,0,0.167,0,0.2,0s0.1,0,0.2,0c0-0.033,0-0.1,0-0.2
	c0.066,0,0.133,0,0.2,0c0.067,0,0.117,0,0.15,0c0.133,0,0.217,0,0.25,0c0-0.033,0-0.1,0-0.2c0.034,0,0.1,0,0.2,0
	c0.033,0,0.1,0,0.2,0c0-0.033,0-0.067,0-0.1c0.033,0,0.083,0,0.15,0c0.1,0,0.167,0,0.2,0c0.034,0,0.1,0,0.2,0c0-0.1,0-0.183,0-0.25
	c0.033,0,0.083,0,0.15,0c0.067,0,0.133,0,0.2,0c0.066,0,0.133,0,0.2,0c0-0.067,0-0.15,0-0.25c0.067,0,0.15,0,0.25,0
	c0.034,0,0.083,0,0.15,0c0-0.033,0-0.1,0-0.2c0.066,0,0.133,0,0.2,0c0.033,0,0.1,0,0.2,0c0.033,0,0.1,0,0.2,0c0-0.033,0-0.066,0-0.1
	c0.034,0,0.083,0,0.15,0c0.066,0,0.133,0,0.2,0c0.033,0,0.1,0,0.2,0c0-0.1,0-0.167,0-0.2c0.033,0,0.117,0,0.25,0
	c0.033,0,0.066,0,0.1,0c0.1,0,0.183,0,0.25,0c0-0.067,0-0.15,0-0.25c0.033,0,0.1,0,0.2,0c0.033,0,0.067,0,0.1,0c0.1,0,0.167,0,0.2,0
	c0-0.033,0-0.067,0-0.1c0.1,0,0.167,0,0.2,0c0.067,0,0.15,0,0.25,0c0-0.1,0-0.167,0-0.2c0.033,0,0.067,0,0.1,0
	c0.133,0,0.217,0,0.25,0c0.1,0,0.167,0,0.2,0c0-0.1,0-0.167,0-0.2c0.066,0,0.133,0,0.2,0c0.067,0,0.117,0,0.15,0
	c0-0.067,0-0.15,0-0.25c0.1,0,0.167,0,0.2,0c0.067,0,0.133,0,0.2,0c0-0.067,0-0.117,0-0.15c0.066,0,0.133,0,0.2,0
	c0.067,0,0.117,0,0.15,0c0-0.1,0-0.167,0-0.2c0.1,0,0.167,0,0.2,0c0.1,0,0.183,0,0.25,0s0.117,0,0.15,0c0-0.1,0-0.167,0-0.2
	c0.1,0,0.167,0,0.2,0c0.1,0,0.167,0,0.2,0c0-0.067,0-0.133,0-0.2c0.034,0,0.1,0,0.2,0c0.067,0,0.117,0,0.15,0c0.1,0,0.167,0,0.2,0
	c0-0.067,0-0.117,0-0.15c0.1,0,0.167,0,0.2,0c0.034,0,0.117,0,0.25,0c0.034,0,0.083,0,0.15,0c0-0.1,0-0.167,0-0.2
	c0.1,0,0.167,0,0.2,0s0.1,0,0.2,0c0.033,0,0.1,0,0.2,0c0-0.066,0-0.133,0-0.2c0.034,0,0.083,0,0.15,0c0.066,0,0.133,0,0.2,0
	c0.033,0,0.1,0,0.2,0c0-0.067,0-0.133,0-0.2c0.033,0,0.083,0,0.15,0c0.1,0,0.183,0,0.25,0c0-0.1,0-0.167,0-0.2
	c0.067,0,0.133,0,0.2,0c0.033,0,0.1,0,0.2,0c0.033,0,0.083,0,0.15,0c0-0.1,0-0.167,0-0.2c0.067,0,0.133,0,0.2,0s0.133,0,0.2,0
	c0.033,0,0.1,0,0.2,0c0-0.033,0-0.1,0-0.2c0.033,0,0.067,0,0.1,0c0.1,0,0.2,0,0.3,0c0-0.066,0-0.117,0-0.15c0.034,0,0.1,0,0.2,0
	c0.033,0,0.1,0,0.2,0c0.033,0,0.066,0,0.1,0c0-0.1,0-0.167,0-0.2c0.1,0,0.167,0,0.2,0c0.067,0,0.15,0,0.25,0c0.033,0,0.1,0,0.2,0
	c0-0.1,0-0.167,0-0.2c0.033,0,0.066,0,0.1,0c0.101,0,0.167,0,0.2,0c0.066,0,0.15,0,0.25,0c0-0.033,0-0.1,0-0.2
	c0.066,0,0.116,0,0.15,0c0-0.033,0-0.083,0-0.15c0.1,0,0.166,0,0.199,0c0.101,0,0.167,0,0.2,0c0-0.1,0-0.183,0-0.25
	c0.066,0,0.134,0,0.2,0s0.116,0,0.15,0c0.1,0,0.166,0,0.199,0c0-0.1,0-0.167,0-0.2c0.034,0,0.101,0,0.2,0c0.066,0,0.134,0,0.2,0
	c0-0.033,0-0.1,0-0.2c0.1,0,0.167,0,0.2,0c0.1,0,0.166,0,0.2,0c0.033,0,0.1,0,0.199,0c0-0.033,0-0.083,0-0.15c0.034,0,0.101,0,0.2,0
	c0.066,0,0.117,0,0.15,0c0.1,0,0.166,0,0.2,0c0-0.067,0-0.133,0-0.2c0.033,0,0.1,0,0.199,0c0.034,0,0.084,0,0.15,0s0.15,0,0.25,0
	c0-0.033,0-0.1,0-0.2c0.1,0,0.167,0,0.2,0s0.1,0,0.2,0c0-0.033,0-0.1,0-0.2c0.033,0,0.083,0,0.149,0s0.134,0,0.2,0
	c0.033,0,0.1,0,0.2,0c0-0.033,0-0.083,0-0.15c0.033,0,0.1,0,0.2,0c0.033,0,0.083,0,0.149,0s0.134,0,0.2,0c0-0.067,0-0.133,0-0.2
	c0.033,0,0.116,0,0.25,0c0.033,0,0.1,0,0.2,0c0.033,0,0.083,0,0.149,0c0-0.033,0-0.117,0-0.25c0.067,0,0.134,0,0.2,0
	c0.033,0,0.101,0,0.2,0c0.033,0,0.066,0,0.1,0c0-0.033,0-0.083,0-0.15c0.101,0,0.167,0,0.2,0c0.101,0,0.184,0,0.25,0
	c0-0.067,0-0.133,0-0.2c0.033,0,0.117,0,0.25,0c0.033,0,0.066,0,0.101,0c0.1,0,0.166,0,0.199,0c0-0.066,0-0.133,0-0.2
	c0.067,0,0.134,0,0.2,0s0.15,0,0.25,0c0-0.034,0-0.1,0-0.2c0.033,0,0.066,0,0.101,0c0.1,0,0.166,0,0.199,0c0.067,0,0.134,0,0.2,0
	c0-0.033,0-0.067,0-0.1c0.066,0,0.134,0,0.2,0s0.134,0,0.2,0c0-0.1,0-0.183,0-0.25c0.1,0,0.166,0,0.2,0c0.066,0,0.133,0,0.199,0
	c0-0.066,0-0.133,0-0.2c0.067,0,0.117,0,0.15,0c0.1,0,0.167,0,0.2,0c0.1,0,0.166,0,0.2,0c0-0.034,0-0.117,0-0.25
	c0.066,0,0.133,0,0.199,0c0.067,0,0.117,0,0.15,0c0-0.034,0-0.067,0-0.1c0.1,0,0.167,0,0.2,0c0.133,0,0.217,0,0.25,0s0.1,0,0.2,0
	c0-0.1,0-0.167,0-0.2c0.066,0,0.116,0,0.149,0c0.101,0,0.167,0,0.2,0c0-0.066,0-0.15,0-0.25c0.033,0,0.1,0,0.2,0
	c0.033,0,0.1,0,0.2,0c0.033,0,0.083,0,0.149,0c0-0.033,0-0.1,0-0.2c0.101,0,0.167,0,0.2,0s0.1,0,0.2,0c0.066,0,0.133,0,0.2,0
	c0-0.034,0-0.067,0-0.1c0.066,0,0.133,0,0.199,0c0.067,0,0.134,0,0.2,0c0.033,0,0.101,0,0.2,0c0-0.1,0-0.167,0-0.2
	c0.033,0,0.083,0,0.15,0c0.066,0,0.133,0,0.199,0c0-0.066,0-0.133,0-0.2c0.067,0,0.134,0,0.2,0c0.033,0,0.101,0,0.2,0
	c0.033,0,0.066,0,0.1,0c0-0.067,0-0.15,0-0.25c0.134,0,0.233,0,0.301,0c0.033,0,0.1,0,0.199,0c0.034,0,0.101,0,0.2,0
	c0-0.067,0-0.117,0-0.15c0.033,0,0.066,0,0.101,0c0.1,0,0.166,0,0.199,0c0.067,0,0.15,0,0.25,0c0-0.1,0-0.167,0-0.2
	c0.034,0,0.067,0,0.101,0c0.1,0,0.166,0,0.2,0c0.133,0,0.216,0,0.25,0c0-0.067,0-0.133,0-0.2c0.066,0,0.133,0,0.199,0
	c0.067,0,0.117,0,0.15,0c0-0.066,0-0.117,0-0.15c0.1,0,0.167,0,0.2,0c0.1,0,0.166,0,0.2,0c0.066,0,0.133,0,0.199,0
	c0.067,0,0.117,0,0.15,0c0.1,0,0.167,0,0.2,0c0.066,0,0.133,0,0.2,0c0.1,0,0.183,0,0.25,0c0.066,0,0.116,0,0.149,0
	c0.101,0,0.167,0,0.2,0s0.1,0,0.2,0c0.066,0,0.133,0,0.2,0c0.066,0,0.116,0,0.149,0c0.101,0,0.167,0,0.2,0c0,0.033,0,0.083,0,0.15
	c0.033,0,0.1,0,0.2,0c0.033,0,0.1,0,0.2,0c0,0.067,0,0.133,0,0.2c0.1,0,0.166,0,0.199,0c0.101,0,0.167,0,0.2,0c0,0.033,0,0.1,0,0.2
	c0.033,0,0.101,0,0.2,0c0.033,0,0.083,0,0.15,0c0,0.034,0,0.083,0,0.15c0.066,0,0.1,0.033,0.1,0.1c0.066,0.034,0.1,0.083,0.1,0.15
	c0.034,0,0.084,0.017,0.15,0.05c0.033,0.033,0.05,0.083,0.05,0.15C70.083,2.65,70.134,2.667,70.2,2.7z M42.5,23.1
	c0-0.067,0-0.133,0-0.2c0.1,0,0.167,0,0.2,0c0.066,0,0.133,0,0.2,0c0-0.1,0-0.167,0-0.2c0.067,0,0.117,0,0.15,0c0-0.034,0-0.1,0-0.2
	c0.1,0,0.167,0,0.2,0c0-0.033,0-0.083,0-0.15c0.067,0,0.133,0,0.2,0c0.066,0,0.133,0,0.2,0c0-0.067,0-0.133,0-0.2
	c0.067,0,0.117,0,0.15,0c0.1,0,0.167,0,0.2,0c0-0.066,0-0.133,0-0.2c0.1,0,0.183,0,0.25,0s0.117,0,0.15,0c0-0.034,0-0.117,0-0.25
	c0.1,0,0.167,0,0.2,0c0.1,0,0.167,0,0.2,0c0.034,0,0.1,0,0.2,0c0-0.034,0-0.083,0-0.15c0.067,0,0.117,0,0.15,0c0.1,0,0.167,0,0.2,0
	c0.1,0,0.167,0,0.2,0c0.034,0,0.117,0,0.25,0c0-0.066,0-0.133,0-0.2c0.034,0,0.083,0,0.15,0c0.1,0,0.167,0,0.2,0s0.1,0,0.2,0
	c0.033,0,0.1,0,0.2,0c0.034,0,0.083,0,0.15,0c0.066,0,0.133,0,0.2,0c0.167,0,0.367,0,0.6,0c0.067,0,0.133,0,0.2,0
	c0.033,0,0.1,0,0.2,0c0.033,0,0.083,0,0.15,0c0.067,0,0.133,0,0.2,0s0.133,0,0.2,0c0.033,0,0.1,0,0.2,0c0.033,0,0.067,0,0.1,0
	c0.1,0,0.2,0,0.3,0c0,0.066,0,0.133,0,0.2c0.034,0,0.1,0,0.2,0c0.033,0,0.1,0,0.2,0c0.033,0,0.066,0,0.1,0h0.15
	c0.033,0.067,0.05,0.117,0.05,0.15c0.067,0,0.15,0,0.25,0c0.033,0,0.1,0,0.2,0c0,0.133,0,0.216,0,0.25c0.033,0,0.066,0,0.1,0
	c0.101,0,0.167,0,0.2,0c0.066,0,0.15,0,0.25,0c0,0.066,0,0.133,0,0.2c0.066,0,0.116,0,0.15,0c0.1,0,0.166,0,0.199,0
	c0,0.067,0,0.133,0,0.2c0.101,0,0.167,0,0.2,0c0,0.066,0,0.117,0,0.15c0.066,0,0.134,0,0.2,0c0,0.1,0,0.167,0,0.2
	c0.066,0,0.116,0,0.15,0c0.1,0,0.166,0,0.199,0c0,0.033,0,0.1,0,0.2c0.034,0,0.084,0,0.15,0c0.033,0.067,0.05,0.133,0.05,0.2
	c0.066,0,0.117,0,0.15,0c0.033,0.066,0.05,0.117,0.05,0.15c0.1,0,0.167,0,0.2,0c0,0.133,0,0.217,0,0.25c0.1,0,0.166,0,0.2,0
	c0,0.033,0,0.1,0,0.2c0.033,0,0.1,0,0.199,0c0,0.033,0,0.083,0,0.15c0.034,0,0.084,0.017,0.15,0.05
	c0.033,0.067,0.05,0.117,0.05,0.15c0.066,0,0.117,0.017,0.15,0.05c0,0.066,0,0.117,0,0.15c0.1,0,0.149,0.017,0.149,0.05
	c0.034,0,0.051,0.05,0.051,0.15c0,0.033,0,0.083,0,0.15c0.033,0,0.1,0,0.199,0c0,0.066,0,0.133,0,0.2c0.034,0,0.084,0,0.15,0
	c0,0.1,0,0.184,0,0.25c0.066,0,0.15,0,0.25,0c0,0.034,0,0.1,0,0.2c0,0.033,0,0.083,0,0.15c0.1,0,0.167,0,0.2,0
	c0,0.067,0,0.133,0,0.2c0,0.033,0,0.1,0,0.2c0.033,0,0.1,0,0.2,0c0,0.034,0,0.1,0,0.2c0,0.033,0,0.083,0,0.15
	c0.033,0,0.083,0.017,0.149,0.05c0,0.033,0,0.083,0,0.15c0,0.033,0,0.1,0,0.2c0,0.034,0,0.083,0,0.15c0,0.1,0,0.183,0,0.25
	c0.066,0,0.134,0,0.2,0c0,0.066,0,0.133,0,0.2c0,0.033,0,0.1,0,0.2c0,0.033,0,0.066,0,0.1c0,0.1,0,0.167,0,0.2c0,0.1,0,0.184,0,0.25
	c0.033,0,0.1,0,0.2,0c0,0.033,0,0.1,0,0.2c0,0.033,0,0.066,0,0.1c0,0.133,0,0.216,0,0.25c0,0.066,0,0.133,0,0.2
	c0,0.067,0,0.15,0,0.25c0,0.033,0,0.067,0,0.1c0,0.1,0,0.167,0,0.2c0,0.066,0,0.133,0,0.2c0,0.067,0,0.133,0,0.2
	c0,0.066,0,0.117,0,0.15c0,0.133,0,0.217,0,0.25c-0.101,0-0.167,0-0.2,0c0,0.067,0,0.133,0,0.2c0,0.066,0,0.117,0,0.15
	c0,0.1,0,0.167,0,0.2c0,0.1,0,0.167,0,0.2c0,0.067,0,0.133,0,0.2c-0.066,0-0.134,0-0.2,0c0,0.066,0,0.117,0,0.15
	c0,0.1,0,0.167,0,0.2c0,0.034,0,0.1,0,0.2c-0.066,0-0.116,0-0.149,0c0,0.067,0,0.15,0,0.25c0,0.067,0,0.117,0,0.15
	c0,0.1-0.017,0.15-0.051,0.15c-0.066,0.034-0.116,0.05-0.149,0.05c0,0.033,0,0.1,0,0.2c0,0.034,0,0.1,0,0.2c-0.033,0-0.101,0-0.2,0
	c0,0.033,0,0.083,0,0.15c-0.1,0-0.184,0-0.25,0c0,0.1,0,0.167,0,0.2s0,0.1,0,0.2c-0.066,0-0.116,0-0.15,0c0,0.034,0,0.1,0,0.2
	c-0.1,0-0.166,0-0.199,0c0,0.067,0,0.133,0,0.2c0,0.066-0.017,0.1-0.051,0.1c0,0.067-0.05,0.1-0.149,0.1c0,0.033,0,0.083,0,0.15
	c-0.033,0.034-0.084,0.05-0.15,0.05c0,0.033-0.017,0.083-0.05,0.15c-0.066,0-0.116,0-0.15,0c0,0.067-0.017,0.1-0.05,0.1
	c-0.066,0.066-0.116,0.1-0.149,0.1c0,0.033-0.017,0.066-0.051,0.1c0,0.067-0.05,0.1-0.149,0.1c0,0.033,0,0.067,0,0.1
	c-0.033,0.067-0.101,0.1-0.2,0.1c0,0.033-0.017,0.083-0.05,0.15c-0.033,0-0.084,0-0.15,0c0,0.1-0.017,0.15-0.05,0.15
	c-0.066,0.067-0.116,0.1-0.15,0.1c-0.033,0-0.1,0-0.199,0c0,0.033,0,0.067,0,0.1c-0.034,0.066-0.084,0.1-0.15,0.1
	c0,0.033,0,0.1,0,0.2c-0.066,0-0.134,0-0.2,0c-0.033,0-0.1,0-0.2,0c0,0.033,0,0.067,0,0.1c-0.033,0-0.1,0-0.199,0
	c0,0.1,0,0.183,0,0.25c-0.034,0-0.084,0-0.15,0c-0.1,0-0.184,0-0.25,0c0,0.033,0,0.1,0,0.2c-0.033,0-0.1,0-0.2,0
	c-0.033,0-0.066,0-0.1,0c0,0.033-0.033,0.066-0.101,0.1c-0.033,0-0.066,0-0.1,0c-0.1,0-0.183,0-0.25,0c-0.033,0-0.1,0-0.2,0
	c0,0.1,0,0.167,0,0.2c-0.033,0-0.066,0-0.1,0c-0.1,0-0.167,0-0.2,0c-0.1,0-0.167,0-0.2,0c-0.1,0-0.2,0-0.3,0c-0.033,0-0.067,0-0.1,0
	c0,0.1,0,0.183,0,0.25c-0.1,0-0.167,0-0.2,0c-0.067,0-0.133,0-0.2,0s-0.133,0-0.2,0c-0.066,0-0.117,0-0.15,0c-0.1,0-0.167,0-0.2,0
	c-0.067,0-0.133,0-0.2,0c-0.233,0-0.433,0-0.6,0c-0.066,0-0.133,0-0.2,0c-0.067,0-0.117,0-0.15,0c-0.1,0-0.167,0-0.2,0
	c-0.1,0-0.167,0-0.2,0s-0.1,0-0.2,0c0-0.067,0-0.15,0-0.25c-0.067,0-0.117,0-0.15,0c-0.133,0-0.216,0-0.25,0c-0.033,0-0.1,0-0.2,0
	c-0.033,0-0.1,0-0.2,0c0-0.033,0-0.1,0-0.2c-0.033,0-0.083,0-0.15,0c-0.1,0-0.167,0-0.2,0c-0.033,0-0.1,0-0.2,0
	c0-0.033,0-0.066,0-0.1c-0.033,0-0.1,0-0.2,0c-0.033,0-0.083,0-0.15,0s-0.1-0.034-0.1-0.1c-0.1-0.033-0.15-0.067-0.15-0.1
	c-0.033,0-0.1,0-0.2,0c0-0.067,0-0.15,0-0.25c-0.033,0-0.083,0-0.15,0c-0.066,0-0.133,0-0.2,0c0-0.033,0-0.067,0-0.1
	c-0.067,0-0.133,0-0.2,0c0-0.1,0-0.167,0-0.2c-0.033,0-0.1,0-0.2,0c-0.033,0-0.083-0.034-0.15-0.1c0-0.033,0-0.067,0-0.1
	c-0.066,0-0.133,0-0.2,0c0-0.067,0-0.15,0-0.25c-0.034,0-0.1,0-0.2,0c-0.033,0-0.083,0-0.15,0c-0.067-0.067-0.1-0.117-0.1-0.15
	c-0.033,0-0.067-0.033-0.1-0.1c0-0.033,0-0.067,0-0.1c-0.1,0-0.15-0.033-0.15-0.1c-0.067-0.033-0.1-0.066-0.1-0.1
	c-0.033,0-0.066-0.034-0.1-0.1c-0.066,0-0.1-0.033-0.1-0.1c-0.034,0-0.067,0-0.1,0c-0.067-0.067-0.1-0.117-0.1-0.15
	c0-0.1,0-0.167,0-0.2c-0.033,0-0.067,0-0.1,0c0-0.066,0-0.133,0-0.2h-0.15c-0.033-0.067-0.05-0.133-0.05-0.2c-0.067,0-0.15,0-0.25,0
	c0-0.1,0-0.167,0-0.2c0-0.1,0-0.167,0-0.2c-0.034,0-0.067,0-0.1,0c0-0.033,0-0.1,0-0.2c-0.133,0-0.217,0-0.25,0
	c0-0.066,0-0.117,0-0.15c0-0.1,0-0.167,0-0.2c-0.1,0-0.167,0-0.2,0c0-0.1,0-0.167,0-0.2s0-0.1,0-0.2c-0.066,0-0.117,0-0.15,0
	c-0.033-0.033-0.05-0.083-0.05-0.15c0-0.1,0-0.183,0-0.25c0-0.1,0-0.167,0-0.2c-0.067,0-0.117,0-0.15,0c0-0.033,0-0.1,0-0.2
	c0-0.033,0-0.083,0-0.15c0-0.067,0-0.133,0-0.2c-0.1,0-0.167,0-0.2,0c0-0.033,0-0.1,0-0.2c0-0.033,0-0.1,0-0.2
	c0-0.033,0-0.083,0-0.15c0-0.067,0-0.133,0-0.2c0-0.033,0-0.117,0-0.25c0-0.033,0-0.083,0-0.15c0-0.067,0-0.133,0-0.2
	c-0.1,0-0.167,0-0.2,0c0-0.066,0-0.133,0-0.2c0-0.034,0-0.1,0-0.2c0-0.033,0-0.067,0-0.1c0-0.1,0-0.183,0-0.25
	c0-0.066,0-0.133,0-0.2c0.033,0,0.1,0,0.2,0c0-0.034,0-0.117,0-0.25c0-0.034,0-0.067,0-0.1c0-0.1,0-0.167,0-0.2
	c0-0.066,0-0.15,0-0.25c0-0.033,0-0.1,0-0.2c0-0.034,0-0.067,0-0.1c0-0.1,0-0.167,0-0.2c0.033,0,0.1,0,0.2,0c0-0.066,0-0.133,0-0.2
	c0-0.067,0-0.15,0-0.25c0-0.067,0-0.117,0-0.15c0-0.1,0-0.167,0-0.2c0.034,0,0.083,0,0.15,0c0-0.067,0-0.133,0-0.2
	c0-0.066,0-0.117,0-0.15c0.066,0,0.133,0,0.2,0c0-0.1,0-0.167,0-0.2c0-0.1,0-0.167,0-0.2c0.033,0,0.1,0,0.2,0c0-0.067,0-0.133,0-0.2
	c0-0.066,0-0.117,0-0.15c0.033,0,0.117,0,0.25,0c0-0.1,0-0.167,0-0.2c0-0.066,0-0.15,0-0.25c0.033,0,0.066,0,0.1,0
	c0-0.066,0-0.133,0-0.2c0.1,0,0.183,0,0.25,0c0-0.067,0-0.117,0-0.15c0.033,0,0.1,0,0.2,0c0-0.1,0-0.167,0-0.2s0-0.1,0-0.2
	c0.033,0,0.067,0,0.1,0c0-0.033,0-0.1,0-0.2c0.1,0,0.167,0,0.2,0c0-0.067,0-0.117,0-0.15c0.1,0,0.167,0,0.2,0c0-0.1,0-0.167,0-0.2
	c0.067,0,0.15,0,0.25,0c0-0.033,0-0.117,0-0.25c0.033,0,0.067,0,0.1,0c0-0.033,0-0.083,0-0.15C42.383,23.1,42.467,23.1,42.5,23.1z"
	/>
</svg>
